<?xml version="1.0" encoding="UTF-8" standalone="no"?>
<!-- Created with Inkscape (http://www.inkscape.org/) -->

<svg
   version="1.1"
   id="svg1"
   width="344.28125"
   height="66.816406"
   viewBox="0 0 344.28125 66.816409"
   xmlns="http://www.w3.org/2000/svg"
   xmlns:svg="http://www.w3.org/2000/svg">
  <defs
     id="defs1" />
  <g
     id="g1"
     transform="translate(-207.00781,-84.257802)">
    <g
       id="g2">
      <path
         style="font-weight:900;font-size:88px;font-family:'Inter 28pt';fill:#1a1a1a"
         d="m 17.660156,0.81640625 q -4.554687,0 -8.0781247,-1.4609375 Q 6.1015625,-2.1484375 4.125,-5.1132812 2.1484375,-8.1210938 2.1484375,-12.71875 q 0,-3.824219 1.3320313,-6.488281 1.3320312,-2.707031 3.6953124,-4.425781 2.4062501,-1.71875 5.5859378,-2.621094 3.179687,-0.902344 6.875,-1.160156 3.996093,-0.257813 6.402343,-0.6875 2.449219,-0.472657 3.523438,-1.246094 1.074219,-0.773438 1.074219,-2.0625 v -0.171875 q 0,-1.03125 -0.644532,-1.804688 -0.644531,-0.773437 -1.804687,-1.160156 -1.160156,-0.429687 -2.75,-0.429687 -1.675781,0 -2.921875,0.472656 -1.246094,0.472656 -1.976563,1.417969 -0.730468,0.902343 -0.945312,2.277343 l -15.6835937,-0.34375 q 0.4726562,-4.898437 3.0507812,-8.421875 2.6210938,-3.523437 7.3906255,-5.414062 4.769531,-1.933594 11.687499,-1.933594 5.199219,0 9.238282,1.117188 4.039062,1.074218 6.832031,3.179687 2.792969,2.0625 4.210937,5.027344 1.417969,2.964844 1.417969,6.703125 V 0 H 31.109375 v -6.4453125 h -0.214844 q -1.503906,2.7070312 -3.480469,4.296875 -1.933593,1.58984375 -4.382812,2.27734375 -2.40625,0.6875 -5.371094,0.6875 z M 23.246094,-9.9257813 q 1.890625,0 3.609375,-0.7304687 1.761718,-0.730469 2.835937,-2.148438 1.117188,-1.417968 1.117188,-3.480468 v -3.695313 q -0.644532,0.257813 -1.375,0.472657 -0.730469,0.214843 -1.546875,0.429687 -0.816407,0.171875 -1.804688,0.386719 -0.988281,0.171875 -2.148437,0.386719 -1.804688,0.300781 -3.09375,0.945312 -1.246094,0.601563 -1.933594,1.546875 -0.644531,0.902344 -0.644531,2.0625 0,1.203125 0.644531,2.0625 0.644531,0.859375 1.761719,1.332031 1.117187,0.4296877 2.578125,0.4296877 z m 49.582031,11 q -6.703125,0 -11.816406,-1.9335937 Q 55.898437,-2.8359375 52.847656,-6.4023437 49.796875,-9.96875 49.28125,-14.738281 l 16.714844,-0.515625 q 0.429687,2.191406 2.105468,3.523437 1.71875,1.332031 4.683594,1.332031 2.535156,0 3.910156,-0.773437 1.417969,-0.816406 1.417969,-2.148438 0,-1.203125 -1.289062,-1.933593 -1.246094,-0.773438 -3.867188,-1.203125 L 64.449219,-17.875 q -6.917969,-1.160156 -10.527344,-4.597656 -3.609375,-3.480469 -3.609375,-9.023438 0,-4.769531 2.578125,-8.164062 2.578125,-3.4375 7.433594,-5.285156 4.898437,-1.847657 11.6875,-1.847657 6.746093,0 11.644531,1.890625 4.898437,1.890625 7.648437,5.371094 2.75,3.4375 3.007813,8.25 l -15.554688,0.472656 q -0.128906,-2.0625 -1.890625,-3.308593 -1.71875,-1.289063 -4.253906,-1.289063 -2.40625,0 -3.824219,0.816406 -1.375,0.816407 -1.375,2.148438 0,1.074219 1.074219,1.890625 1.074219,0.773437 3.222656,1.117187 l 9.753907,1.675782 q 7.21875,1.203125 10.65625,4.253906 3.480468,3.007812 3.480468,8.164062 0,4.898438 -2.878906,8.5937503 -2.835937,3.6953124 -7.992187,5.75781245 Q 79.617187,1.0742187 72.828125,1.0742187 Z M 114.33203,-24.707031 V 0 H 97.144531 v -64.023437 h 17.101559 v 30.507812 h -2.10546 q 2.01953,-5.800781 5.92968,-9.582031 3.91016,-3.824219 10.74219,-3.824219 5.07031,0 8.55078,2.234375 3.48047,2.191406 5.28516,6.230469 1.80468,3.996094 1.80468,9.410156 V 0 h -17.23046 v -25.265625 q 0,-3.4375 -1.67578,-5.328125 -1.67579,-1.890625 -4.76954,-1.890625 -2.01953,0 -3.48046,0.859375 -1.46094,0.859375 -2.23438,2.621094 -0.73047,1.71875 -0.73047,4.296875 z m 56.45703,25.69531225 q -7.39062,0 -12.89062,-2.96484375 -5.45703,-3.0078125 -8.46485,-8.4218755 -3.00781,-5.414062 -3.00781,-12.546874 0,-7.175782 3.00781,-12.546875 3.00782,-5.414063 8.46485,-8.421875 5.5,-3.007813 12.89062,-3.007813 4.98438,0 9.10938,1.417969 4.16797,1.417969 7.21875,3.996094 3.05078,2.578125 4.8125,6.1875 1.76172,3.566406 2.01953,7.90625 l -16.32813,0.515625 q -0.1289,-1.589844 -0.64453,-2.835938 -0.51562,-1.246094 -1.375,-2.105469 -0.85937,-0.902343 -2.01953,-1.375 -1.11719,-0.472656 -2.49219,-0.472656 -2.27734,0 -3.91015,1.289063 -1.58985,1.246093 -2.49219,3.652343 -0.85938,2.363282 -0.85938,5.757813 0,3.394531 0.85938,5.800781 0.90234,2.40625 2.53516,3.695312 1.63281,1.246094 3.86718,1.246094 1.375,0 2.49219,-0.472656 1.16016,-0.472656 2.01953,-1.375 0.85938,-0.902344 1.375,-2.191406 0.51563,-1.289063 0.64453,-2.921875 l 16.32813,0.515625 q -0.12891,4.382812 -1.84766,7.992187 -1.67578,3.6093753 -4.76953,6.230469 -3.05078,2.6210938 -7.26172,4.0390625 -4.21094,1.41796875 -9.28125,1.41796875 z m 39.69922,-0.171875 q -4.55469,0 -8.07812,-1.4609375 -3.48047,-1.50390625 -5.45704,-4.46874995 -1.97656,-3.0078126 -1.97656,-7.6054688 0,-3.824219 1.33203,-6.488281 1.33203,-2.707031 3.69532,-4.425781 2.40625,-1.71875 5.58593,-2.621094 3.17969,-0.902344 6.875,-1.160156 3.9961,-0.257813 6.40235,-0.6875 2.44922,-0.472657 3.52343,-1.246094 1.07422,-0.773438 1.07422,-2.0625 v -0.171875 q 0,-1.03125 -0.64453,-1.804688 -0.64453,-0.773437 -1.80469,-1.160156 -1.16015,-0.429687 -2.75,-0.429687 -1.67578,0 -2.92187,0.472656 -1.24609,0.472656 -1.97656,1.417969 -0.73047,0.902343 -0.94532,2.277343 l -15.68359,-0.34375 q 0.47266,-4.898437 3.05078,-8.421875 2.6211,-3.523437 7.39063,-5.414062 4.76953,-1.933594 11.6875,-1.933594 5.19922,0 9.23828,1.117188 4.03906,1.074218 6.83203,3.179687 2.79297,2.0625 4.21094,5.027344 1.41797,2.964844 1.41797,6.703125 V 0 H 223.9375 v -6.4453125 h -0.21484 q -1.50391,2.7070312 -3.48047,4.296875 -1.9336,1.58984375 -4.38282,2.27734375 -2.40625,0.6875 -5.37109,0.6875 z m 5.58594,-10.74218755 q 1.89062,0 3.60937,-0.7304687 1.76172,-0.730469 2.83594,-2.148438 1.11719,-1.417968 1.11719,-3.480468 v -3.695313 q -0.64453,0.257813 -1.375,0.472657 -0.73047,0.214843 -1.54688,0.429687 -0.8164,0.171875 -1.80468,0.386719 -0.98829,0.171875 -2.14844,0.386719 -1.80469,0.300781 -3.09375,0.945312 -1.2461,0.601563 -1.9336,1.546875 -0.64453,0.902344 -0.64453,2.0625 0,1.203125 0.64453,2.0625 0.64454,0.859375 1.76172,1.332031 1.11719,0.4296877 2.57813,0.4296877 z M 244.25781,0 v -45.976562 h 17.1875 V 0 Z m 8.50781,-49.414062 q -3.91015,0 -6.44531,-2.320313 -2.53515,-2.320312 -2.53515,-5.84375 0,-3.566406 2.53515,-5.84375 2.53516,-2.320312 6.44531,-2.320312 3.91016,0 6.44532,2.320312 2.57812,2.277344 2.57812,5.84375 0,3.523438 -2.57812,5.84375 -2.53516,2.320313 -6.44532,2.320313 z M 265.17969,0 v -45.976562 h 16.67187 v 8.464843 h 0.17188 q 1.24609,-4.726562 3.91015,-6.660156 2.70703,-1.933594 7.17578,-1.933594 1.2461,0 2.27735,0.04297 1.03125,0.04297 2.0625,0.128906 v 13.964844 q -0.98828,-0.128906 -2.87891,-0.171875 -1.84765,-0.04297 -3.4375,-0.04297 -2.62109,0 -4.59765,1.203125 -1.97657,1.160157 -3.09375,3.351563 -1.07422,2.191406 -1.07422,5.15625 V 0 Z m 51.1289,-24.707031 V 0 h -17.1875 v -45.976562 h 16.80078 l 0.043,12.460937 h -1.84765 q 2.01953,-5.800781 5.92968,-9.582031 3.91016,-3.824219 10.74219,-3.824219 5.07031,0 8.55078,2.234375 3.48047,2.191406 5.28516,6.230469 1.80469,3.996094 1.80469,9.410156 V 0 h -17.23047 v -25.265625 q 0,-3.4375 -1.67578,-5.328125 -1.67578,-1.890625 -4.76953,-1.890625 -2.01954,0 -3.48047,0.859375 -1.46094,0.859375 -2.23438,2.621094 -0.73047,1.71875 -0.73047,4.296875 z"
         id="text2"
         transform="translate(204.85937,149.99999)"
         aria-label="ashcairn" />
    </g>
  </g>
</svg>
