<?xml version="1.0" encoding="UTF-8" standalone="no"?>
<!-- Created with Inkscape (http://www.inkscape.org/) -->

<svg
   version="1.1"
   id="svg1"
   width="344.28125"
   height="66.816406"
   viewBox="0 0 344.28125 66.816409"
   xmlns="http://www.w3.org/2000/svg"
   xmlns:svg="http://www.w3.org/2000/svg">
  <defs
     id="defs1">
    <clipPath
       clipPathUnits="userSpaceOnUse"
       id="clipPath3">
      <path
         d="M 37.999998,37.999998 H 717.99997 V 197.99999 H 37.999998 Z"
         clip-rule="evenodd"
         id="path3" />
    </clipPath>
    <clipPath
       clipPathUnits="userSpaceOnUse"
       id="clipPath4">
      <path
         d="M -276.87499,-9.9999998 H 390.12499 V 1.9999997 h -666.99998 z"
         clip-rule="evenodd"
         id="path4" />
    </clipPath>
    <clipPath
       clipPathUnits="userSpaceOnUse"
       id="clipPath5">
      <path
         d="M 37.999998,37.999998 H 717.99997 V 197.99999 H 37.999998 Z"
         clip-rule="evenodd"
         id="path5" />
    </clipPath>
  </defs>
  <g
     id="g1"
     transform="translate(-207.00781,-84.257802)">
    <g
       id="g2">
      <path
         style="font-weight:900;font-size:88px;font-family:'Inter 28pt';fill:#ffffff"
         d="m 17.660156,0.81640625 q -4.554687,0 -8.0781247,-1.4609375 Q 6.1015625,-2.1484375 4.125,-5.1132812 2.1484375,-8.1210938 2.1484375,-12.71875 q 0,-3.824219 1.3320313,-6.488281 1.3320312,-2.707031 3.6953124,-4.425781 2.4062501,-1.71875 5.5859378,-2.621094 3.179687,-0.902344 6.875,-1.160156 3.996093,-0.257813 6.402343,-0.6875 2.449219,-0.472657 3.523438,-1.246094 1.074219,-0.773438 1.074219,-2.0625 v -0.171875 q 0,-1.03125 -0.644532,-1.804688 -0.644531,-0.773437 -1.804687,-1.160156 -1.160156,-0.429687 -2.75,-0.429687 -1.675781,0 -2.921875,0.472656 -1.246094,0.472656 -1.976563,1.417969 -0.730468,0.902343 -0.945312,2.277343 l -15.6835937,-0.34375 q 0.4726562,-4.898437 3.0507812,-8.421875 2.6210938,-3.523437 7.3906255,-5.414062 4.769531,-1.933594 11.687499,-1.933594 5.199219,0 9.238282,1.117188 4.039062,1.074218 6.832031,3.179687 2.792969,2.0625 4.210937,5.027344 1.417969,2.964844 1.417969,6.703125 V 0 H 31.109375 v -6.4453125 h -0.214844 q -1.503906,2.7070312 -3.480469,4.296875 -1.933593,1.58984375 -4.382812,2.27734375 -2.40625,0.6875 -5.371094,0.6875 z M 23.246094,-9.9257813 q 1.890625,0 3.609375,-0.7304687 1.761718,-0.730469 2.835937,-2.148438 1.117188,-1.417968 1.117188,-3.480468 v -3.695313 q -0.644532,0.257813 -1.375,0.472657 -0.730469,0.214843 -1.546875,0.429687 -0.816407,0.171875 -1.804688,0.386719 -0.988281,0.171875 -2.148437,0.386719 -1.804688,0.300781 -3.09375,0.945312 -1.246094,0.601563 -1.933594,1.546875 -0.644531,0.902344 -0.644531,2.0625 0,1.203125 0.644531,2.0625 0.644531,0.859375 1.761719,1.332031 1.117187,0.4296877 2.578125,0.4296877 z m 49.582031,11 q -6.703125,0 -11.816406,-1.9335937 Q 55.898437,-2.8359375 52.847656,-6.4023437 49.796875,-9.96875 49.28125,-14.738281 l 16.714844,-0.515625 q 0.429687,2.191406 2.105468,3.523437 1.71875,1.332031 4.683594,1.332031 2.535156,0 3.910156,-0.773437 1.417969,-0.816406 1.417969,-2.148438 0,-1.203125 -1.289062,-1.933593 -1.246094,-0.773438 -3.867188,-1.203125 L 64.449219,-17.875 q -6.917969,-1.160156 -10.527344,-4.597656 -3.609375,-3.480469 -3.609375,-9.023438 0,-4.769531 2.578125,-8.164062 2.578125,-3.4375 7.433594,-5.285156 4.898437,-1.847657 11.6875,-1.847657 6.746093,0 11.644531,1.890625 4.898437,1.890625 7.648437,5.371094 2.75,3.4375 3.007813,8.25 l -15.554688,0.472656 q -0.128906,-2.0625 -1.890625,-3.308593 -1.71875,-1.289063 -4.253906,-1.289063 -2.40625,0 -3.824219,0.816406 -1.375,0.816407 -1.375,2.148438 0,1.074219 1.074219,1.890625 1.074219,0.773437 3.222656,1.117187 l 9.753907,1.675782 q 7.21875,1.203125 10.65625,4.253906 3.480468,3.007812 3.480468,8.164062 0,4.898438 -2.878906,8.5937503 -2.835937,3.6953124 -7.992187,5.75781245 Q 79.617187,1.0742187 72.828125,1.0742187 Z M 114.33203,-24.707031 V 0 H 97.144531 v -64.023437 h 17.101559 v 30.507812 h -2.10546 q 2.01953,-5.800781 5.92968,-9.582031 3.91016,-3.824219 10.74219,-3.824219 5.07031,0 8.55078,2.234375 3.48047,2.191406 5.28516,6.230469 1.80468,3.996094 1.80468,9.410156 V 0 h -17.23046 v -25.265625 q 0,-3.4375 -1.67578,-5.328125 -1.67579,-1.890625 -4.76954,-1.890625 -2.01953,0 -3.48046,0.859375 -1.46094,0.859375 -2.23438,2.621094 -0.73047,1.71875 -0.73047,4.296875 z m 56.45703,25.69531225 q -7.39062,0 -12.89062,-2.96484375 -5.45703,-3.0078125 -8.46485,-8.4218755 -3.00781,-5.414062 -3.00781,-12.546874 0,-7.175782 3.00781,-12.546875 3.00782,-5.414063 8.46485,-8.421875 5.5,-3.007813 12.89062,-3.007813 4.98438,0 9.10938,1.417969 4.16797,1.417969 7.21875,3.996094 3.05078,2.578125 4.8125,6.1875 1.76172,3.566406 2.01953,7.90625 l -16.32813,0.515625 q -0.1289,-1.589844 -0.64453,-2.835938 -0.51562,-1.246094 -1.375,-2.105469 -0.85937,-0.902343 -2.01953,-1.375 -1.11719,-0.472656 -2.49219,-0.472656 -2.27734,0 -3.91015,1.289063 -1.58985,1.246093 -2.49219,3.652343 -0.85938,2.363282 -0.85938,5.757813 0,3.394531 0.85938,5.800781 0.90234,2.40625 2.53516,3.695312 1.63281,1.246094 3.86718,1.246094 1.375,0 2.49219,-0.472656 1.16016,-0.472656 2.01953,-1.375 0.85938,-0.902344 1.375,-2.191406 0.51563,-1.289063 0.64453,-2.921875 l 16.32813,0.515625 q -0.12891,4.382812 -1.84766,7.992187 -1.67578,3.6093753 -4.76953,6.230469 -3.05078,2.6210938 -7.26172,4.0390625 -4.21094,1.41796875 -9.28125,1.41796875 z m 39.69922,-0.171875 q -4.55469,0 -8.07812,-1.4609375 -3.48047,-1.50390625 -5.45704,-4.46874995 -1.97656,-3.0078126 -1.97656,-7.6054688 0,-3.824219 1.33203,-6.488281 1.33203,-2.707031 3.69532,-4.425781 2.40625,-1.71875 5.58593,-2.621094 3.17969,-0.902344 6.875,-1.160156 3.9961,-0.257813 6.40235,-0.6875 2.44922,-0.472657 3.52343,-1.246094 1.07422,-0.773438 1.07422,-2.0625 v -0.171875 q 0,-1.03125 -0.64453,-1.804688 -0.64453,-0.773437 -1.80469,-1.160156 -1.16015,-0.429687 -2.75,-0.429687 -1.67578,0 -2.92187,0.472656 -1.24609,0.472656 -1.97656,1.417969 -0.73047,0.902343 -0.94532,2.277343 l -15.68359,-0.34375 q 0.47266,-4.898437 3.05078,-8.421875 2.6211,-3.523437 7.39063,-5.414062 4.76953,-1.933594 11.6875,-1.933594 5.19922,0 9.23828,1.117188 4.03906,1.074218 6.83203,3.179687 2.79297,2.0625 4.21094,5.027344 1.41797,2.964844 1.41797,6.703125 V 0 H 223.9375 v -6.4453125 h -0.21484 q -1.50391,2.7070312 -3.48047,4.296875 -1.9336,1.58984375 -4.38282,2.27734375 -2.40625,0.6875 -5.37109,0.6875 z m 5.58594,-10.74218755 q 1.89062,0 3.60937,-0.7304687 1.76172,-0.730469 2.83594,-2.148438 1.11719,-1.417968 1.11719,-3.480468 v -3.695313 q -0.64453,0.257813 -1.375,0.472657 -0.73047,0.214843 -1.54688,0.429687 -0.8164,0.171875 -1.80468,0.386719 -0.98829,0.171875 -2.14844,0.386719 -1.80469,0.300781 -3.09375,0.945312 -1.2461,0.601563 -1.9336,1.546875 -0.64453,0.902344 -0.64453,2.0625 0,1.203125 0.64453,2.0625 0.64454,0.859375 1.76172,1.332031 1.11719,0.4296877 2.57813,0.4296877 z M 244.25781,0 v -45.976562 h 17.1875 V 0 Z m 8.50781,-49.414062 q -3.91015,0 -6.44531,-2.320313 -2.53515,-2.320312 -2.53515,-5.84375 0,-3.566406 2.53515,-5.84375 2.53516,-2.320312 6.44531,-2.320312 3.91016,0 6.44532,2.320312 2.57812,2.277344 2.57812,5.84375 0,3.523438 -2.57812,5.84375 -2.53516,2.320313 -6.44532,2.320313 z M 265.17969,0 v -45.976562 h 16.67187 v 8.464843 h 0.17188 q 1.24609,-4.726562 3.91015,-6.660156 2.70703,-1.933594 7.17578,-1.933594 1.2461,0 2.27735,0.04297 1.03125,0.04297 2.0625,0.128906 v 13.964844 q -0.98828,-0.128906 -2.87891,-0.171875 -1.84765,-0.04297 -3.4375,-0.04297 -2.62109,0 -4.59765,1.203125 -1.97657,1.160157 -3.09375,3.351563 -1.07422,2.191406 -1.07422,5.15625 V 0 Z m 51.1289,-24.707031 V 0 h -17.1875 v -45.976562 h 16.80078 l 0.043,12.460937 h -1.84765 q 2.01953,-5.800781 5.92968,-9.582031 3.91016,-3.824219 10.74219,-3.824219 5.07031,0 8.55078,2.234375 3.48047,2.191406 5.28516,6.230469 1.80469,3.996094 1.80469,9.410156 V 0 h -17.23047 v -25.265625 q 0,-3.4375 -1.67578,-5.328125 -1.67578,-1.890625 -4.76953,-1.890625 -2.01954,0 -3.48047,0.859375 -1.46094,0.859375 -2.23438,2.621094 -0.73047,1.71875 -0.73047,4.296875 z"
         id="text2"
         transform="translate(204.85937,149.99999)"
         aria-label="ashcairn" />
      <g
         id="g3"
         clip-path="url(#clipPath3)">
        <path
           style="font-size:10.66px;font-family:Arial"
           d="M 3.9714746,0 H 3.0345605 V -5.9702245 Q 2.6962304,-5.6475097 2.1444922,-5.3247948 1.597959,-5.00208 1.1607324,-4.8407226 V -5.7464062 Q 1.9466992,-6.1159667 2.534873,-6.6416796 3.1230468,-7.1673925 3.3676855,-7.6618749 h 0.6037891 z m 2.4047462,-2.0143652 0.9369141,-0.1249219 q 0.1613574,0.796377 0.5465332,1.15032227 0.3903808,0.34874023 0.9473242,0.34874023 0.6610449,0 1.1138867,-0.4580469 0.458047,-0.4580468 0.458047,-1.134707 0,-0.6454297 -0.4216115,-1.0618359 -0.4216113,-0.4216113 -1.0722461,-0.4216113 -0.2654589,0 -0.6610449,0.1041015 l 0.1041016,-0.8224023 q 0.093691,0.01041 0.1509472,0.01041 0.598584,0 1.0774512,-0.3123047 0.4788675,-0.3123047 0.4788675,-0.9629395 0,-0.5153027 -0.3487405,-0.8536328 -0.3487403,-0.33833 -0.9004786,-0.33833 -0.5465331,0 -0.9108886,0.3435351 -0.3643555,0.3435352 -0.468457,1.0306055 L 6.4699122,-5.6839452 q 0.1717676,-0.9421192 0.7807617,-1.4574219 0.6089942,-0.5205078 1.5146777,-0.5205078 0.6246094,0 1.1503223,0.2706641 0.5257131,0.2654589 0.8015821,0.7287109 0.281074,0.4632519 0.281074,0.9837597 0,0.4944825 -0.265459,0.9004785 -0.265459,0.4059961 -0.7859666,0.6454297 0.6766606,0.1561524 1.0514256,0.6506348 0.374766,0.4892773 0.374766,1.2283984 0,0.999375 -0.728711,1.69685545 -0.7287111,0.69227538 -1.8425978,0.69227538 -1.0045801,0 -1.6708301,-0.59858398 Q 6.4699122,-1.0618359 6.3762208,-2.0143652 Z m 5.4809472,2.14449215 2.212158,-7.89089835 h 0.749532 l -2.206953,7.89089835 z m 3.404121,-3.89339835 q 0,-1.3533203 0.275869,-2.1757227 0.281074,-0.8276074 0.827607,-1.2752441 0.551739,-0.4476367 1.384551,-0.4476367 0.614199,0 1.077451,0.2498438 0.463252,0.2446386 0.765147,0.7130956 0.301894,0.463252 0.473662,1.1347071 0.171767,0.66625 0.171767,1.800957 0,1.3429101 -0.275869,2.1705175 -0.275869,0.82240235 -0.827607,1.27524414 -0.546533,0.44763671 -1.384551,0.44763671 -1.103476,0 -1.733291,-0.79117186 -0.754736,-0.95252929 -0.754736,-3.10222649 z m 0.962939,0 q 0,1.8790331 0.437227,2.5036425 0.442431,0.6194043 1.087861,0.6194043 0.64543,0 1.082656,-0.6246094 0.442432,-0.6246093 0.442432,-2.4984374 0,-1.8842383 -0.442432,-2.5036426 -0.437226,-0.6194043 -1.093066,-0.6194043 -0.64543,0 -1.030605,0.5465332 -0.484073,0.6974805 -0.484073,2.5765137 z m 4.970851,1.7489062 0.936914,-0.1249219 q 0.161357,0.796377 0.546533,1.15032227 0.390381,0.34874023 0.947324,0.34874023 0.661045,0 1.113887,-0.4580469 0.458047,-0.4580468 0.458047,-1.134707 0,-0.6454297 -0.421611,-1.0618359 -0.421612,-0.4216113 -1.072246,-0.4216113 -0.265459,0 -0.661045,0.1041015 l 0.104101,-0.8224023 q 0.09369,0.01041 0.150947,0.01041 0.598584,0 1.077452,-0.3123047 0.478867,-0.3123047 0.478867,-0.9629395 0,-0.5153027 -0.34874,-0.8536328 -0.348741,-0.33833 -0.900479,-0.33833 -0.546533,0 -0.910889,0.3435351 -0.364355,0.3435352 -0.468457,1.0306055 L 21.28877,-5.6839452 q 0.171768,-0.9421192 0.780762,-1.4574219 0.608994,-0.5205078 1.514678,-0.5205078 0.624609,0 1.150322,0.2706641 0.525713,0.2654589 0.801582,0.7287109 0.281074,0.4632519 0.281074,0.9837597 0,0.4944825 -0.265459,0.9004785 -0.265459,0.4059961 -0.785966,0.6454297 0.67666,0.1561524 1.051425,0.6506348 0.374766,0.4892773 0.374766,1.2283984 0,0.999375 -0.728711,1.69685545 -0.728711,0.69227538 -1.842598,0.69227538 -1.00458,0 -1.67083,-0.59858398 Q 21.28877,-1.0618359 21.195079,-2.0143652 Z m 5.480946,2.14449215 2.212159,-7.89089835 h 0.749531 L 27.430762,0.13012695 Z M 35.00415,-0.9004785 V 0 h -5.043721 q -0.01041,-0.33833007 0.109307,-0.65063476 0.192588,-0.51530274 0.614199,-1.01499024 0.426816,-0.4996875 1.228398,-1.1555273 1.244014,-1.0201953 1.681241,-1.6135742 0.437226,-0.598584 0.437226,-1.1295019 0,-0.5569434 -0.400791,-0.9369141 -0.395586,-0.3851758 -1.03581,-0.3851758 -0.67666,0 -1.082657,0.4059961 -0.405996,0.4059961 -0.411201,1.1242969 l -0.962939,-0.098897 q 0.0989,-1.0774512 0.744326,-1.6395996 0.64543,-0.5673535 1.733291,-0.5673535 1.098271,0 1.738496,0.6089941 0.640225,0.6089942 0.640225,1.5094727 0,0.4580468 -0.187383,0.9004785 -0.187383,0.4424316 -0.624609,0.9317089 -0.432022,0.4892774 -1.441807,1.3429102 -0.843223,0.7078906 -1.082656,0.9629394 -0.239434,0.2498438 -0.395586,0.5048926 z m 1.004581,-2.8627929 q 0,-1.3533203 0.275869,-2.1757227 0.281074,-0.8276074 0.827608,-1.2752441 0.551738,-0.4476367 1.38455,-0.4476367 0.6142,0 1.077452,0.2498438 0.463251,0.2446386 0.765146,0.7130956 0.301895,0.463252 0.473662,1.1347071 0.171768,0.66625 0.171768,1.800957 0,1.3429101 -0.275869,2.1705175 -0.27587,0.82240235 -0.827608,1.27524414 -0.546533,0.44763671 -1.384551,0.44763671 -1.103476,0 -1.733291,-0.79117186 -0.754736,-0.95252929 -0.754736,-3.10222649 z m 0.96294,0 q 0,1.8790331 0.437226,2.5036425 0.442432,0.6194043 1.087861,0.6194043 0.64543,0 1.082657,-0.6246094 0.442431,-0.6246093 0.442431,-2.4984374 0,-1.8842383 -0.442431,-2.5036426 -0.437227,-0.6194043 -1.093067,-0.6194043 -0.645429,0 -1.030605,0.5465332 -0.484072,0.6974805 -0.484072,2.5765137 z m 9.889649,2.8627929 V 0 h -5.043721 q -0.01041,-0.33833007 0.109307,-0.65063476 0.192588,-0.51530274 0.614199,-1.01499024 0.426817,-0.4996875 1.228399,-1.1555273 1.244013,-1.0201953 1.68124,-1.6135742 0.437226,-0.598584 0.437226,-1.1295019 0,-0.5569434 -0.400791,-0.9369141 -0.395586,-0.3851758 -1.03581,-0.3851758 -0.67666,0 -1.082656,0.4059961 -0.405996,0.4059961 -0.411202,1.1242969 l -0.962939,-0.098897 q 0.0989,-1.0774512 0.744326,-1.6395996 0.64543,-0.5673535 1.733291,-0.5673535 1.098272,0 1.738496,0.6089941 0.640225,0.6089942 0.640225,1.5094727 0,0.4580468 -0.187383,0.9004785 -0.187383,0.4424316 -0.624609,0.9317089 -0.432022,0.4892774 -1.441807,1.3429102 -0.843223,0.7078906 -1.082656,0.9629394 -0.239434,0.2498438 -0.395586,0.5048926 z m 5.866124,-4.8615429 -0.931709,0.072871 q -0.124922,-0.5517383 -0.353945,-0.801582 -0.379971,-0.400791 -0.936914,-0.400791 -0.447637,0 -0.785967,0.2498437 -0.442432,0.3227148 -0.69748,0.9421191 -0.255049,0.6194043 -0.265459,1.7645215 0.33833,-0.5153027 0.827607,-0.7651465 0.489277,-0.2498437 1.0254,-0.2498437 0.936914,0 1.592754,0.6922754 0.661045,0.6870703 0.661045,1.7801366 0,0.7183008 -0.312305,1.3377051 -0.307099,0.61419922 -0.848427,0.94211913 -0.541328,0.32791992 -1.228399,0.32791992 -1.171142,0 -1.910263,-0.85883788 -0.739121,-0.86404297 -0.739121,-2.84197257 0,-2.2121582 0.817197,-3.2167383 0.713096,-0.8744531 1.920674,-0.8744531 0.900478,0 1.473037,0.5048926 0.577763,0.5048926 0.692275,1.3949609 z m -3.825732,3.2896093 q 0,0.4840723 0.202998,0.9265039 0.208203,0.4424317 0.577763,0.67666017 0.369561,0.22902343 0.775557,0.22902343 0.593379,0 1.020195,-0.4788672 0.426817,-0.4788672 0.426817,-1.3012695 0,-0.7911719 -0.421612,-1.2440136 -0.421611,-0.4580469 -1.061835,-0.4580469 -0.63502,0 -1.077452,0.4580469 -0.442431,0.4528417 -0.442431,1.1919628 z M 54.299375,0 v -1.067041 h 1.067041 V 0 q 0,0.58817382 -0.208203,0.94732421 Q 54.95001,1.3116797 54.497168,1.5094726 L 54.236914,1.1086816 Q 54.533603,0.97855467 54.674141,0.72350585 54.814678,0.4736621 54.830293,0 Z m 8.947528,0 h -0.936914 v -5.9702245 q -0.33833,0.3227148 -0.890068,0.6454297 -0.546533,0.3227148 -0.98376,0.4840722 v -0.9056836 q 0.785967,-0.3695605 1.374141,-0.8952734 0.588174,-0.5257129 0.832812,-1.0201953 h 0.603789 z m 2.462007,-6.6312694 v -0.9004785 h 4.939619 v 0.7287109 q -0.728711,0.7755566 -1.447011,2.0612109 -0.713096,1.2856543 -1.103477,2.6441796 Q 67.816967,-1.1399121 67.738891,0 h -0.96294 q 0.01561,-0.9004785 0.353946,-2.1757226 0.33833,-1.2752441 0.968144,-2.4567969 0.63502,-1.1867578 1.348115,-1.9987499 z m 6.386628,2.1705175 v -1.067041 h 1.067041 v 1.067041 z m 0,4.4607519 v -1.067041 h 1.067041 V 0 Z m 7.365189,-0.9004785 V 0 h -5.04372 q -0.01041,-0.33833007 0.109306,-0.65063476 0.192588,-0.51530274 0.614199,-1.01499024 0.426817,-0.4996875 1.228399,-1.1555273 1.244013,-1.0201953 1.68124,-1.6135742 0.437227,-0.598584 0.437227,-1.1295019 0,-0.5569434 -0.400791,-0.9369141 -0.395586,-0.3851758 -1.035811,-0.3851758 -0.67666,0 -1.082656,0.4059961 -0.405996,0.4059961 -0.411201,1.1242969 l -0.96294,-0.098897 q 0.0989,-1.0774512 0.744326,-1.6395996 0.64543,-0.5673535 1.733291,-0.5673535 1.098272,0 1.738496,0.6089941 0.640225,0.6089942 0.640225,1.5094727 0,0.4580468 -0.187383,0.9004785 -0.187383,0.4424316 -0.624609,0.9317089 -0.432022,0.4892774 -1.441807,1.3429102 -0.843222,0.7078906 -1.082656,0.9629394 -0.239434,0.2498438 -0.395586,0.5048926 z m 1.067038,-5.7307909 v -0.9004785 h 4.93962 v 0.7287109 q -0.728711,0.7755566 -1.447012,2.0612109 -0.713096,1.2856543 -1.103477,2.6441796 Q 82.635822,-1.1399121 82.557746,0 h -0.96294 q 0.01562,-0.9004785 0.353946,-2.1757226 0.33833,-1.2752441 0.968144,-2.4567969 0.63502,-1.1867578 1.348116,-1.9987499 z"
           id="text3"
           transform="translate(31.999999,29.999999)"
           aria-label="13/03/2026, 17:27" />
      </g>
      <g
         id="g4"
         clip-path="url(#clipPath5)">
        <path
           style="font-size:10.66px;font-family:Arial"
           d="M -0.01561523,0 2.9148437,-7.6306444 H 4.002705 L 7.1257519,0 H 5.9754296 L 5.0853613,-2.3110547 H 1.8946484 L 1.0566308,0 Z M 2.1861328,-3.133457 H 4.7730566 L 3.9766796,-5.2467187 Q 3.6123242,-6.2096581 3.4353515,-6.8290624 3.2896093,-6.0951464 3.0241503,-5.3716405 Z m 5.2519236,1.4834473 0.9265039,-0.1457422 q 0.078076,0.5569433 0.4320215,0.85363277 0.3591504,0.29668945 0.999375,0.29668945 0.6454292,0 0.9577342,-0.2602539 0.312305,-0.26545902 0.312305,-0.61940432 0,-0.3175097 -0.275869,-0.4996875 Q 10.597539,-2.1496972 9.8323923,-2.3422851 8.8017869,-2.602539 8.4009959,-2.7899218 8.0054099,-2.9825097 7.7972068,-3.3156347 q -0.202998,-0.3383301 -0.202998,-0.7443262 0,-0.3695605 0.1665625,-0.6818652 0.1717675,-0.3175098 0.4632519,-0.5257129 0.2186133,-0.1613574 0.5933789,-0.270664 0.3799707,-0.1145118 0.8119922,-0.1145118 0.6506347,0 1.1399117,0.1873828 0.494483,0.1873829 0.728711,0.5100977 0.234229,0.3175098 0.322715,0.8536328 l -0.916094,0.1249219 q -0.06246,-0.4268164 -0.364355,-0.66625 -0.29669,-0.2394336 -0.8432227,-0.2394336 -0.6454297,0 -0.9212988,0.2134082 -0.2758692,0.2134082 -0.2758692,0.4996875 0,0.1821777 0.1145118,0.3279199 0.1145117,0.1509473 0.3591504,0.2498437 0.1405371,0.052051 0.8276074,0.2394336 0.9941701,0.265459 1.3845511,0.4372266 0.395586,0.1665625 0.619404,0.4892773 0.223818,0.3227149 0.223818,0.801582 0,0.4684571 -0.275869,0.88486332 -0.270664,0.41120116 -0.785967,0.6402246 -0.515302,0.22381835 -1.1659371,0.22381835 -1.0774512,0 -1.6448047,-0.44763671 Q 7.5942088,-0.77035155 7.4380564,-1.6500097 Z M 13.142821,0 v -7.6306444 h 0.936915 v 2.737871 q 0.655839,-0.7599414 1.655214,-0.7599414 0.6142,0 1.067041,0.2446387 0.452842,0.2394336 0.64543,0.66625 0.197793,0.4268164 0.197793,1.2388086 V 0 H 16.7083 v -3.5030175 q 0,-0.7026856 -0.3071,-1.0201953 -0.301894,-0.3227149 -0.858838,-0.3227149 -0.416406,0 -0.785966,0.2186133 -0.364356,0.2134082 -0.520508,0.5829688 -0.156152,0.3695605 -0.156152,1.0201953 V 0 Z m 9.535705,-2.0247754 0.921298,0.1197168 q -0.150947,0.95252932 -0.775556,1.49385743 -0.619404,0.53612304 -1.525088,0.53612304 -1.134707,0 -1.826982,-0.73912108 -0.687071,-0.74432619 -0.687071,-2.12887689 0,-0.8952735 0.29669,-1.5667285 0.296689,-0.6714551 0.900478,-1.0045801 0.608994,-0.3383301 1.32209,-0.3383301 0.900479,0 1.473037,0.4580469 0.572559,0.4528418 0.733916,1.2908594 l -0.910889,0.1405371 q -0.130126,-0.5569434 -0.463251,-0.8380176 -0.32792,-0.2810742 -0.796377,-0.2810742 -0.707891,0 -1.150323,0.5100976 -0.442431,0.5048926 -0.442431,1.6031641 0,1.1138867 0.426816,1.6187793 0.426816,0.50489252 1.113887,0.50489252 0.551738,0 0.921299,-0.33833007 0.36956,-0.33833005 0.468457,-1.04101565 z m 5.33,1.34291018 q -0.520508,0.44243163 -1.004581,0.62460936 -0.478867,0.18217773 -1.030605,0.18217773 -0.910889,0 -1.400166,-0.44243163 -0.489277,-0.44763671 -0.489277,-1.13991214 0,-0.405996 0.182177,-0.739121 0.187383,-0.3383301 0.484073,-0.5413282 0.301894,-0.202998 0.67666,-0.3070996 0.275869,-0.072871 0.832812,-0.1405371 1.134707,-0.135332 1.67083,-0.3227148 0.0052,-0.1925879 0.0052,-0.2446387 0,-0.5725586 -0.265459,-0.8067871 -0.35915,-0.3175097 -1.067041,-0.3175097 -0.661044,0 -0.978554,0.2342285 -0.312305,0.2290234 -0.463252,0.8171972 l -0.916094,-0.1249218 q 0.124922,-0.5881739 0.411201,-0.9473242 0.28628,-0.3643555 0.827608,-0.5569434 0.541328,-0.197793 1.254424,-0.197793 0.70789,0 1.150322,0.1665625 0.442431,0.1665625 0.650635,0.4216114 0.208203,0.2498437 0.291484,0.6350195 0.04685,0.2394336 0.04685,0.8640429 v 1.2492188 q 0,1.3064746 0.05726,1.65521479 Q 28.99749,-0.31750976 29.174463,0 h -0.978555 q -0.145742,-0.29148437 -0.187382,-0.68186522 z m -0.07808,-2.09244138 q -0.510097,0.2082031 -1.530293,0.3539453 -0.577763,0.083281 -0.817197,0.1873828 -0.239433,0.1041016 -0.36956,0.3070996 -0.130127,0.197793 -0.130127,0.4424317 0,0.3747656 0.281074,0.62460932 0.286279,0.24984375 0.832812,0.24984375 0.541329,0 0.96294,-0.23422851 0.421611,-0.23943356 0.619404,-0.65063476 0.150947,-0.3175098 0.150947,-0.936914 z m 2.404746,-3.7788867 v -1.0774511 h 0.936914 v 1.0774511 z m 0,6.5531933 v -5.5277929 h 0.936914 V 0 Z m 2.352695,0 v -5.5277929 h 0.843223 v 0.8380176 q 0.322715,-0.5881738 0.593379,-0.7755567 0.275869,-0.1873828 0.603789,-0.1873828 0.473662,0 0.962939,0.3018946 l -0.322714,0.869248 q -0.343536,-0.202998 -0.687071,-0.202998 -0.307099,0 -0.551738,0.1873828 -0.244639,0.1821777 -0.34874,0.5100976 -0.156153,0.4996875 -0.156153,1.0930664 V 0 Z m 3.560274,0 v -5.5277929 h 0.843223 v 0.7859668 q 0.608994,-0.9108887 1.759316,-0.9108887 0.499688,0 0.916094,0.1821778 0.421611,0.1769726 0.629815,0.468457 0.208203,0.2914844 0.291484,0.6922754 0.05205,0.2602539 0.05205,0.9108886 V 0 h -0.936914 v -3.3624804 q 0,-0.5725586 -0.109307,-0.8536328 -0.109307,-0.2862793 -0.390381,-0.4528418 -0.275869,-0.1717676 -0.650635,-0.1717676 -0.598584,0 -1.03581,0.3799707 -0.432022,0.3799707 -0.432022,1.4418066 V 0 Z m 8.968351,0 V -7.6306444 H 46.2263 v 6.7301659 h 3.758066 V 0 Z m 5.501764,-2.7638964 q 0,-1.5354981 0.853633,-2.2746192 0.713096,-0.6141992 1.738496,-0.6141992 1.139912,0 1.863418,0.7495313 0.723506,0.7443261 0.723506,2.0612109 0,1.067041 -0.322715,1.6812402 -0.31751,0.60899413 -0.931709,0.9473242 -0.608994,0.33833007 -1.3325,0.33833007 -1.160732,0 -1.879033,-0.74432616 -0.713096,-0.74432611 -0.713096,-2.14449211 z m 0.96294,0 q 0,1.0618359 0.463252,1.5927538 0.463252,0.52571292 1.165937,0.52571292 0.697481,0 1.160733,-0.53091792 0.463252,-0.530918 0.463252,-1.6187793 0,-1.0254004 -0.468457,-1.5511133 -0.463252,-0.5309179 -1.155528,-0.5309179 -0.702685,0 -1.165937,0.5257128 -0.463252,0.5257129 -0.463252,1.5875489 z m 5.142618,3.22194327 0.910889,0.13533203 q 0.05726,0.4216113 0.31751,0.6141992 0.34874,0.2602539 0.952529,0.2602539 0.650635,0 1.00458,-0.2602539 0.353945,-0.26025389 0.478867,-0.72871092 0.07287,-0.28627929 0.06767,-1.20237303 Q 59.941679,0 59.025585,0 q -1.139912,0 -1.764521,-0.82240233 -0.62461,-0.82240237 -0.62461,-1.97272457 0,-0.7911719 0.28628,-1.4574219 0.286279,-0.671455 0.827607,-1.0358105 0.546533,-0.3643555 1.280449,-0.3643555 0.978555,0 1.613574,0.7911719 v -0.66625 h 0.864043 v 4.77826166 q 0,1.29085936 -0.265459,1.82698244 -0.260254,0.5413281 -0.832812,0.8536328 -0.567354,0.3123046 -1.400166,0.3123046 -0.988965,0 -1.597959,-0.4476367 -0.608994,-0.4424316 -0.588174,-1.33770503 z m 0.775557,-3.32083977 q 0,1.0878613 0.432021,1.5875488 0.432022,0.49968747 1.082656,0.49968747 0.64543,0 1.082657,-0.49448237 0.437226,-0.4996875 0.437226,-1.5615235 0,-1.0149902 -0.452842,-1.5302929 -0.447636,-0.5153027 -1.082656,-0.5153027 -0.624609,0 -1.061836,0.5100976 -0.437226,0.5048926 -0.437226,1.5042676 z m 4.976056,0.098896 q 0,-1.5354981 0.853632,-2.2746192 0.713096,-0.6141992 1.738496,-0.6141992 1.139912,0 1.863418,0.7495313 0.723506,0.7443261 0.723506,2.0612109 0,1.067041 -0.322715,1.6812402 -0.317509,0.60899413 -0.931709,0.9473242 -0.608994,0.33833007 -1.3325,0.33833007 -1.160732,0 -1.879033,-0.74432616 Q 62.57545,-1.3637304 62.57545,-2.7638964 Z m 0.962939,0 q 0,1.0618359 0.463252,1.5927538 0.463252,0.52571292 1.165937,0.52571292 0.697481,0 1.160733,-0.53091792 0.463252,-0.530918 0.463252,-1.6187793 0,-1.0254004 -0.468457,-1.5511133 -0.463252,-0.5309179 -1.155528,-0.5309179 -0.702685,0 -1.165937,0.5257128 -0.463252,0.5257129 -0.463252,1.5875489 z M 71.89254,0 v -7.6306444 h 1.009785 v 6.7301659 h 3.758066 V 0 Z m 5.85571,-6.5531933 v -1.0774511 h 0.936914 v 1.0774511 z M 77.74825,0 v -5.5277929 h 0.936914 V 0 Z m 2.191344,0.45804687 0.910889,0.13533203 q 0.05726,0.4216113 0.31751,0.6141992 0.34874,0.2602539 0.952529,0.2602539 0.650635,0 1.00458,-0.2602539 0.353945,-0.26025389 0.478867,-0.72871092 0.07287,-0.28627929 0.06767,-1.20237303 Q 83.057436,0 82.141342,0 81.00143,0 80.376821,-0.82240233 q -0.62461,-0.82240237 -0.62461,-1.97272457 0,-0.7911719 0.28628,-1.4574219 0.286279,-0.671455 0.827607,-1.0358105 0.546533,-0.3643555 1.280449,-0.3643555 0.978555,0 1.613574,0.7911719 v -0.66625 h 0.864043 v 4.77826166 q 0,1.29085936 -0.265459,1.82698244 -0.260254,0.5413281 -0.832812,0.8536328 -0.567354,0.3123046 -1.400166,0.3123046 -0.988965,0 -1.597959,-0.4476367 -0.608994,-0.4424316 -0.588174,-1.33770503 z m 0.775557,-3.32083977 q 0,1.0878613 0.432021,1.5875488 0.432022,0.49968747 1.082656,0.49968747 0.64543,0 1.082657,-0.49448237 0.437226,-0.4996875 0.437226,-1.5615235 0,-1.0149902 -0.452842,-1.5302929 -0.447636,-0.5153027 -1.082656,-0.5153027 -0.624609,0 -1.061836,0.5100976 -0.437226,0.5048926 -0.437226,1.5042676 z M 86.039943,0 v -7.6306444 h 0.936914 v 2.737871 q 0.65584,-0.7599414 1.655215,-0.7599414 0.614199,0 1.067041,0.2446387 0.452842,0.2394336 0.645429,0.66625 0.197793,0.4268164 0.197793,1.2388086 V 0 h -0.936914 v -3.5030175 q 0,-0.7026856 -0.307099,-1.0201953 -0.301895,-0.3227149 -0.858838,-0.3227149 -0.416406,0 -0.785967,0.2186133 -0.364355,0.2134082 -0.520508,0.5829688 -0.156152,0.3695605 -0.156152,1.0201953 V 0 Z m 7.974177,-0.83801757 0.135332,0.82760741 q -0.395586,0.08328125 -0.707891,0.08328125 -0.510097,0 -0.791172,-0.16135742 -0.281074,-0.16135742 -0.395586,-0.42161132 -0.114511,-0.26545898 -0.114511,-1.10868165 V -4.799082 h -0.687071 v -0.7287109 h 0.687071 v -1.3689355 l 0.931709,-0.5621484 v 1.9310839 h 0.942119 v 0.7287109 h -0.942119 v 3.2323535 q 0,0.400791 0.04685,0.5153027 0.05205,0.11451175 0.161358,0.18217777 0.114512,0.067666 0.322715,0.067666 0.156152,0 0.411201,-0.0364355 z M 95.195676,0 v -1.067041 h 1.067041 V 0 Z m 2.321461,-1.6500097 0.926503,-0.1457422 q 0.07808,0.5569433 0.432022,0.85363277 0.35915,0.29668945 0.999375,0.29668945 0.645433,0 0.957733,-0.2602539 0.31231,-0.26545902 0.31231,-0.61940432 0,-0.3175097 -0.27587,-0.4996875 -0.19259,-0.1249218 -0.957738,-0.3175097 -1.030605,-0.2602539 -1.431396,-0.4476367 -0.395586,-0.1925879 -0.603789,-0.5257129 -0.202998,-0.3383301 -0.202998,-0.7443262 0,-0.3695605 0.166562,-0.6818652 0.171768,-0.3175098 0.463252,-0.5257129 0.218614,-0.1613574 0.593379,-0.270664 0.379971,-0.1145118 0.811992,-0.1145118 0.650636,0 1.139916,0.1873828 0.49448,0.1873829 0.72871,0.5100977 0.23423,0.3175098 0.32271,0.8536328 l -0.91609,0.1249219 q -0.0625,-0.4268164 -0.36436,-0.66625 -0.29669,-0.2394336 -0.84322,-0.2394336 -0.645429,0 -0.921298,0.2134082 -0.27587,0.2134082 -0.27587,0.4996875 0,0.1821777 0.114512,0.3279199 0.114512,0.1509473 0.359151,0.2498437 0.140537,0.052051 0.827607,0.2394336 0.994168,0.265459 1.384548,0.4372266 0.39559,0.1665625 0.61941,0.4892773 0.22382,0.3227149 0.22382,0.801582 0,0.4684571 -0.27587,0.88486332 -0.27067,0.41120116 -0.78597,0.6402246 -0.5153,0.22381835 -1.165938,0.22381835 -1.077451,0 -1.644805,-0.44763671 -0.562148,-0.44763671 -0.7183,-1.32729486 z M 104.7574,0 102.65455,-5.5277929 h 0.98897 l 1.18675,3.3104297 q 0.19259,0.536123 0.35395,1.1138867 0.12492,-0.4372266 0.34874,-1.0514258 l 1.2284,-3.3728906 h 0.96294 L 105.63186,0 Z m 3.62274,0.45804687 0.91089,0.13533203 q 0.0572,0.4216113 0.31751,0.6141992 0.34874,0.2602539 0.95253,0.2602539 0.65063,0 1.00458,-0.2602539 0.35394,-0.26025389 0.47886,-0.72871092 0.0729,-0.28627929 0.0677,-1.20237303 Q 111.49798,0 110.58189,0 q -1.13992,0 -1.76453,-0.82240233 -0.6246,-0.82240237 -0.6246,-1.97272457 0,-0.7911719 0.28627,-1.4574219 0.28628,-0.671455 0.82761,-1.0358105 0.54654,-0.3643555 1.28045,-0.3643555 0.97856,0 1.61358,0.7911719 v -0.66625 h 0.86404 v 4.77826166 q 0,1.29085936 -0.26546,1.82698244 -0.26025,0.5413281 -0.83281,0.8536328 -0.56736,0.3123046 -1.40017,0.3123046 -0.98896,0 -1.59796,-0.4476367 -0.60899,-0.4424316 -0.58817,-1.33770503 z m 0.77555,-3.32083977 q 0,1.0878613 0.43203,1.5875488 0.43202,0.49968747 1.08265,0.49968747 0.64543,0 1.08266,-0.49448237 0.43723,-0.4996875 0.43723,-1.5615235 0,-1.0149902 -0.45285,-1.5302929 -0.44763,-0.5153027 -1.08265,-0.5153027 -0.62461,0 -1.06184,0.5100976 -0.43723,0.5048926 -0.43723,1.5042676 z"
           id="text4"
           clip-path="url(#clipPath4)"
           transform="translate(402.87498,29.999999)"
           aria-label="Ashcairn Logo Light.svg" />
      </g>
      <g
         id="g5"
         clip-path="url(#clipPath5)">
        <path
           style="font-size:10.66px;font-family:Arial"
           d="M 0.92650389,0 V -4.799082 H 0.09889648 v -0.7287109 h 0.82760741 v -0.5881738 q 0,-0.5569434 0.0988965,-0.8276074 0.135332,-0.3643555 0.4736621,-0.5881738 0.3435351,-0.2290235 0.9577343,-0.2290235 0.395586,0 0.8744532,0.093691 l -0.1405372,0.8171973 q -0.2914843,-0.052051 -0.5517382,-0.052051 -0.4268164,0 -0.6037891,0.1821777 -0.1769726,0.1821778 -0.1769726,0.6818653 v 0.5100976 H 2.935664 V -4.799082 H 1.8582129 V 0 Z M 3.6695801,-6.5531933 v -1.0774511 h 0.936914 v 1.0774511 z m 0,6.5531933 v -5.5277929 h 0.936914 V 0 Z m 2.342285,0 V -7.6306444 H 6.9487792 V 0 Z m 6.1732229,-1.7801367 0.968144,0.1197168 q -0.229023,0.84842772 -0.848428,1.31688475 -0.619404,0.46845702 -1.582343,0.46845702 -1.2127835,0 -1.9258792,-0.74432616 -0.7078906,-0.74953121 -0.7078906,-2.09764641 0,-1.394961 0.7183008,-2.1653125 0.7183008,-0.7703516 1.863418,-0.7703516 1.108682,0 1.811367,0.7547364 0.702686,0.7547363 0.702686,2.1236718 0,0.083281 -0.0052,0.2498437 H 9.0568357 q 0.052051,0.9108887 0.5153028,1.394961 0.4632515,0.48407222 1.1555275,0.48407222 0.515303,0 0.879658,-0.27066406 0.364355,-0.27066406 0.577764,-0.86404296 z M 9.1088865,-3.2948144 h 3.0866115 q -0.06246,-0.6974805 -0.353945,-1.0462207 -0.447637,-0.5413281 -1.160733,-0.5413281 -0.64543,0 -1.0878612,0.4320215 -0.4372266,0.4320214 -0.4840723,1.1555273 z m 5.4809465,-1.1659375 v -1.067041 h 1.067041 v 1.067041 z m 0,4.4607519 v -1.067041 h 1.067041 V 0 Z m 1.998752,0.13012695 2.212158,-7.89089835 h 0.749531 l -2.206953,7.89089835 z m 2.961689,0 2.212158,-7.89089835 h 0.749531 L 20.30501,0.13012695 Z m 2.961689,0 2.212158,-7.89089835 h 0.749531 l -2.206953,7.89089835 z m 9.228603,-2.80553705 1.009785,0.2550488 q -0.31751,1.2440137 -1.145117,1.89985349 -0.822403,0.65063476 -2.014365,0.65063476 -1.233604,0 -2.009161,-0.49968749 -0.770351,-0.50489257 -1.176347,-1.45742186 -0.400791,-0.9525293 -0.400791,-2.0455957 0,-1.1919628 0.452842,-2.0768261 0.458047,-0.8900684 1.296064,-1.3481152 0.843223,-0.463252 1.853008,-0.463252 1.145117,0 1.925879,0.5829688 0.780761,0.5829687 1.087861,1.6395996 l -0.99417,0.2342285 q -0.265459,-0.8328125 -0.770351,-1.2127832 -0.504893,-0.3799707 -1.270039,-0.3799707 -0.879659,0 -1.473038,0.4216113 -0.588173,0.4216113 -0.827607,1.134707 -0.239434,0.7078906 -0.239434,1.462627 0,0.9733495 0.281075,1.7020605 0.286279,0.7235058 0.884863,1.0826562 0.598584,0.35915039 1.296064,0.35915039 0.848428,0 1.436602,-0.48927729 0.588174,-0.4892774 0.796377,-1.4522168 z m 2.394336,-1.7853418 v -1.067041 h 1.067041 v 1.067041 z m 0,4.4607519 v -1.067041 h 1.067041 V 0 Z m 1.99875,0.13012695 2.212158,-7.89089835 h 0.749531 l -2.206953,7.89089835 z m 8.791376,-7.76077135 h 1.009785 v 4.4087011 q 0,1.1503222 -0.260254,1.8269824 -0.260254,0.67666013 -0.942119,1.10347653 -0.67666,0.42161132 -1.780136,0.42161132 -1.072247,0 -1.754112,-0.36956054 -0.681865,-0.36956054 -0.973349,-1.06704101 -0.291485,-0.7026855 -0.291485,-1.9154687 v -4.4087011 h 1.009785 v 4.403496 q 0,0.9941699 0.182178,1.467832 0.187383,0.468457 0.63502,0.7235059 0.452841,0.25504879 1.103476,0.25504879 1.113887,0 1.587549,-0.50489259 0.473662,-0.5048925 0.473662,-1.9414941 z m 2.196543,5.9806347 0.926504,-0.1457422 q 0.07808,0.5569433 0.432022,0.85363277 0.35915,0.29668945 0.999375,0.29668945 0.64543,0 0.957734,-0.2602539 0.312305,-0.26545902 0.312305,-0.61940432 0,-0.3175097 -0.275869,-0.4996875 -0.192588,-0.1249218 -0.957735,-0.3175097 -1.030605,-0.2602539 -1.431396,-0.4476367 -0.395586,-0.1925879 -0.603789,-0.5257129 -0.202998,-0.3383301 -0.202998,-0.7443262 0,-0.3695605 0.166562,-0.6818652 0.171768,-0.3175098 0.463252,-0.5257129 0.218614,-0.1613574 0.593379,-0.270664 0.379971,-0.1145118 0.811992,-0.1145118 0.650635,0 1.139912,0.1873828 0.494483,0.1873829 0.728711,0.5100977 0.234229,0.3175098 0.322715,0.8536328 l -0.916094,0.1249219 q -0.06246,-0.4268164 -0.364355,-0.66625 -0.296689,-0.2394336 -0.843223,-0.2394336 -0.645429,0 -0.921298,0.2134082 -0.27587,0.2134082 -0.27587,0.4996875 0,0.1821777 0.114512,0.3279199 0.114512,0.1509473 0.359151,0.2498437 0.140537,0.052051 0.827607,0.2394336 0.99417,0.265459 1.384551,0.4372266 0.395586,0.1665625 0.619404,0.4892773 0.223818,0.3227149 0.223818,0.801582 0,0.4684571 -0.275869,0.88486332 -0.270664,0.41120116 -0.785967,0.6402246 -0.515302,0.22381835 -1.165937,0.22381835 -1.077451,0 -1.644805,-0.44763671 -0.562148,-0.44763671 -0.718301,-1.32729486 z m 9.48886,-0.130127 0.968144,0.1197168 q -0.229023,0.84842772 -0.848428,1.31688475 -0.619404,0.46845702 -1.582343,0.46845702 -1.212783,0 -1.925879,-0.74432616 -0.707891,-0.74953121 -0.707891,-2.09764641 0,-1.394961 0.718301,-2.1653125 0.718301,-0.7703516 1.863418,-0.7703516 1.108682,0 1.811367,0.7547364 0.702686,0.7547363 0.702686,2.1236718 0,0.083281 -0.0052,0.2498437 h -4.122422 q 0.05205,0.9108887 0.515303,1.394961 0.463251,0.48407222 1.155527,0.48407222 0.515303,0 0.879658,-0.27066406 0.364355,-0.27066406 0.577764,-0.86404296 z M 53.53423,-3.2948144 h 3.086611 q -0.06246,-0.6974805 -0.353945,-1.0462207 -0.447637,-0.5413281 -1.160733,-0.5413281 -0.64543,0 -1.087861,0.4320215 -0.437227,0.4320214 -0.484072,1.1555273 z M 58.74451,0 v -5.5277929 h 0.843223 v 0.8380176 q 0.322715,-0.5881738 0.593379,-0.7755567 0.275869,-0.1873828 0.603789,-0.1873828 0.473662,0 0.962939,0.3018946 l -0.322715,0.869248 q -0.343535,-0.202998 -0.68707,-0.202998 -0.3071,0 -0.551738,0.1873828 -0.244639,0.1821777 -0.348741,0.5100976 -0.156152,0.4996875 -0.156152,1.0930664 V 0 Z m 3.18551,-1.6500097 0.926504,-0.1457422 q 0.07808,0.5569433 0.432022,0.85363277 0.35915,0.29668945 0.999375,0.29668945 0.645429,0 0.957734,-0.2602539 0.312305,-0.26545902 0.312305,-0.61940432 0,-0.3175097 -0.275869,-0.4996875 -0.192588,-0.1249218 -0.957735,-0.3175097 -1.030605,-0.2602539 -1.431396,-0.4476367 -0.395586,-0.1925879 -0.603789,-0.5257129 -0.202998,-0.3383301 -0.202998,-0.7443262 0,-0.3695605 0.166562,-0.6818652 0.171768,-0.3175098 0.463252,-0.5257129 0.218613,-0.1613574 0.593379,-0.270664 0.379971,-0.1145118 0.811992,-0.1145118 0.650635,0 1.139912,0.1873828 0.494483,0.1873829 0.728711,0.5100977 0.234229,0.3175098 0.322715,0.8536328 l -0.916094,0.1249219 q -0.06246,-0.4268164 -0.364355,-0.66625 -0.29669,-0.2394336 -0.843223,-0.2394336 -0.64543,0 -0.921299,0.2134082 -0.275869,0.2134082 -0.275869,0.4996875 0,0.1821777 0.114512,0.3279199 0.114512,0.1509473 0.35915,0.2498437 0.140537,0.052051 0.827608,0.2394336 0.99417,0.265459 1.38455,0.4372266 0.395586,0.1665625 0.619405,0.4892773 0.223818,0.3227149 0.223818,0.801582 0,0.4684571 -0.275869,0.88486332 -0.270664,0.41120116 -0.785967,0.6402246 -0.515303,0.22381835 -1.165937,0.22381835 -1.077451,0 -1.644805,-0.44763671 -0.562148,-0.44763671 -0.718301,-1.32729486 z m 5.002078,1.78013665 2.212159,-7.89089835 h 0.749531 l -2.206953,7.89089835 z m 9.228607,-2.80553705 1.009785,0.2550488 q -0.317509,1.2440137 -1.145117,1.89985349 -0.822402,0.65063476 -2.014365,0.65063476 -1.233604,0 -2.00916,-0.49968749 -0.770352,-0.50489257 -1.176348,-1.45742186 -0.400791,-0.9525293 -0.400791,-2.0455957 0,-1.1919628 0.452842,-2.0768261 0.458047,-0.8900684 1.296064,-1.3481152 0.843223,-0.463252 1.853008,-0.463252 1.145117,0 1.925879,0.5829688 0.780762,0.5829687 1.087861,1.6395996 l -0.99417,0.2342285 q -0.265459,-0.8328125 -0.770351,-1.2127832 -0.504893,-0.3799707 -1.270039,-0.3799707 -0.879658,0 -1.473037,0.4216113 -0.588174,0.4216113 -0.827608,1.134707 -0.239433,0.7078906 -0.239433,1.462627 0,0.9733495 0.281074,1.7020605 0.286279,0.7235058 0.884863,1.0826562 0.598584,0.35915039 1.296065,0.35915039 0.848427,0 1.436601,-0.48927729 0.588174,-0.4892774 0.796377,-1.4522168 z m 5.741202,1.99354488 q -0.520508,0.44243163 -1.00458,0.62460936 -0.478868,0.18217773 -1.030606,0.18217773 -0.910888,0 -1.400166,-0.44243163 -0.489277,-0.44763671 -0.489277,-1.13991214 0,-0.405996 0.182178,-0.739121 0.187382,-0.3383301 0.484072,-0.5413282 0.301894,-0.202998 0.67666,-0.3070996 0.275869,-0.072871 0.832812,-0.1405371 1.134707,-0.135332 1.670831,-0.3227148 0.0052,-0.1925879 0.0052,-0.2446387 0,-0.5725586 -0.265459,-0.8067871 -0.359151,-0.3175097 -1.067041,-0.3175097 -0.661045,0 -0.978555,0.2342285 -0.312305,0.2290234 -0.463252,0.8171972 l -0.916094,-0.1249218 q 0.124922,-0.5881739 0.411201,-0.9473242 0.28628,-0.3643555 0.827608,-0.5569434 0.541328,-0.197793 1.254424,-0.197793 0.70789,0 1.150322,0.1665625 0.442432,0.1665625 0.650635,0.4216114 0.208203,0.2498437 0.291484,0.6350195 0.04685,0.2394336 0.04685,0.8640429 v 1.2492188 q 0,1.3064746 0.05726,1.65521479 Q 82.890872,-0.31750976 83.067844,0 h -0.978555 q -0.145742,-0.29148437 -0.187382,-0.68186522 z m -0.07808,-2.09244138 q -0.510098,0.2082031 -1.530293,0.3539453 -0.577764,0.083281 -0.817198,0.1873828 -0.239433,0.1041016 -0.36956,0.3070996 -0.130127,0.197793 -0.130127,0.4424317 0,0.3747656 0.281074,0.62460932 0.286279,0.24984375 0.832813,0.24984375 0.541328,0 0.962939,-0.23422851 0.421611,-0.23943356 0.619404,-0.65063476 0.150948,-0.3175098 0.150948,-0.936914 z M 84.202549,0 v -7.6306444 h 0.936914 V 0 Z m 2.477615,0 v -7.6306444 h 1.519883 l 1.806162,5.402871 q 0.249844,0.7547363 0.364356,1.1295019 0.130126,-0.4164062 0.405996,-1.2231933 l 1.826982,-5.3091796 h 1.358525 V 0 H 92.988719 V -6.3866308 L 90.771356,0 H 89.860467 L 87.653514,-6.4959374 V 0 Z m 12.3985,-2.0247754 0.921299,0.1197168 q -0.150947,0.95252932 -0.775556,1.49385743 -0.619405,0.53612304 -1.525088,0.53612304 -1.134707,0 -1.826983,-0.73912108 -0.68707,-0.74432619 -0.68707,-2.12887689 0,-0.8952735 0.29669,-1.5667285 0.296689,-0.6714551 0.900478,-1.0045801 0.608994,-0.3383301 1.32209,-0.3383301 0.900478,0 1.473037,0.4580469 0.572559,0.4528418 0.733916,1.2908594 l -0.910889,0.1405371 q -0.130127,-0.5569434 -0.463252,-0.8380176 -0.32792,-0.2810742 -0.796377,-0.2810742 -0.70789,0 -1.150322,0.5100976 -0.442431,0.5048926 -0.442431,1.6031641 0,1.1138867 0.426816,1.6187793 0.426816,0.50489252 1.113887,0.50489252 0.551738,0 0.921298,-0.33833007 0.369561,-0.33833005 0.468457,-1.04101565 z m 5.413276,-0.9681445 v -0.8952734 l 3.23235,-0.00521 v 2.8315625 q -0.74432,0.59337888 -1.53549,0.8952734 -0.79118,0.29668945 -1.62399,0.29668945 -1.1243,0 -2.04559,-0.47886718 -0.9161,-0.48407226 -1.38456,-1.39496087 -0.46845,-0.9108887 -0.46845,-2.0351856 0,-1.1138867 0.46325,-2.0768261 0.46846,-0.9681445 1.34291,-1.4366015 0.87445,-0.4684571 2.01436,-0.4684571 0.82761,0 1.49386,0.2706641 0.67146,0.265459 1.05143,0.7443261 0.37997,0.4788672 0.57776,1.2492188 l -0.91089,0.2498437 q -0.17176,-0.5829687 -0.42681,-0.9160937 -0.25505,-0.333125 -0.72871,-0.530918 -0.47367,-0.202998 -1.05143,-0.202998 -0.69228,0 -1.19717,0.2134082 -0.50489,0.2082031 -0.8172,0.5517383 -0.30709,0.3435351 -0.47886,0.7547363 -0.29149,0.7078906 -0.29149,1.535498 0,1.0201953 0.34874,1.7072656 0.35395,0.6870703 1.0254,1.0201953 0.67146,0.33312499 1.4262,0.33312499 0.65584,0 1.28044,-0.24984379 0.62461,-0.2550488 0.94733,-0.5413281 V -2.9929199 Z M 112.71597,0 v -0.81199218 q -0.64543,0.93691405 -1.75411,0.93691405 -0.48928,0 -0.9161,-0.18738281 -0.42161,-0.18738281 -0.62981,-0.46845702 -0.203,-0.28627929 -0.28628,-0.69748044 -0.0573,-0.2758692 -0.0573,-0.8744531 v -3.4249414 h 0.93692 v 3.065791 q 0,0.733916 0.0572,0.9889648 0.0885,0.3695606 0.37477,0.58296875 0.28628,0.20820313 0.70789,0.20820313 0.42161,0 0.79117,-0.2134082 0.36956,-0.21861328 0.52051,-0.58817378 0.15615,-0.3747657 0.15615,-1.0826563 v -2.9616894 h 0.93692 V 0 Z m 2.31105,-6.5531933 v -1.0774511 h 0.93691 v 1.0774511 z m 0,6.5531933 v -5.5277929 h 0.93691 V 0 Z m 2.35269,0 v -5.5277929 h 0.84323 v 0.8380176 q 0.32271,-0.5881738 0.59338,-0.7755567 0.27587,-0.1873828 0.60378,-0.1873828 0.47367,0 0.96294,0.3018946 l -0.32271,0.869248 q -0.34354,-0.202998 -0.68707,-0.202998 -0.3071,0 -0.55174,0.1873828 -0.24464,0.1821777 -0.34874,0.5100976 -0.15615,0.4996875 -0.15615,1.0930664 V 0 Z m 7.34437,-1.7801367 0.96815,0.1197168 q -0.22903,0.84842772 -0.84843,1.31688475 -0.61941,0.46845702 -1.58234,0.46845702 -1.21279,0 -1.92588,-0.74432616 -0.70789,-0.74953121 -0.70789,-2.09764641 0,-1.394961 0.7183,-2.1653125 0.7183,-0.7703516 1.86341,-0.7703516 1.10869,0 1.81137,0.7547364 0.70269,0.7547363 0.70269,2.1236718 0,0.083281 -0.005,0.2498437 h -4.12242 q 0.052,0.9108887 0.5153,1.394961 0.46325,0.48407222 1.15553,0.48407222 0.5153,0 0.87966,-0.27066406 0.36435,-0.27066406 0.57776,-0.86404296 z m -3.0762,-1.5146777 h 3.08661 q -0.0625,-0.6974805 -0.35394,-1.0462207 -0.44764,-0.5413281 -1.16074,-0.5413281 -0.64543,0 -1.08786,0.4320215 -0.43722,0.4320214 -0.48407,1.1555273 z m 4.51801,3.42494135 2.21215,-7.89089835 h 0.74954 l -2.20696,7.89089835 z m 3.47699,-3.84655265 q 0,-1.8998535 1.0202,-2.9720996 1.02019,-1.0774512 2.63377,-1.0774512 1.05663,0 1.90505,0.5048926 0.84843,0.5048926 1.29086,1.4105762 0.44764,0.9004785 0.44764,2.0455956 0,1.1607325 -0.46846,2.0768262 -0.46845,0.91609372 -1.32729,1.38975583 -0.85884,0.46845702 -1.85301,0.46845702 -1.07745,0 -1.92588,-0.5205078 -0.84843,-0.52050781 -1.28565,-1.42098635 -0.43723,-0.9004785 -0.43723,-1.9050585 z m 1.04102,0.015615 q 0,1.3793457 0.73912,2.1757226 0.74432,0.79117189 1.86342,0.79117189 1.13991,0 1.87382,-0.80158199 0.73913,-0.801582 0.73913,-2.2746191 0,-0.931709 -0.31751,-1.6239844 -0.31231,-0.6974804 -0.9213,-1.0774511 -0.60379,-0.3851758 -1.35853,-0.3851758 -1.07224,0 -1.8478,0.7391211 -0.77035,0.733916 -0.77035,2.4567968 z M 138.12195,0 v -5.5277929 h 0.84322 v 0.7859668 q 0.609,-0.9108887 1.75932,-0.9108887 0.49969,0 0.91609,0.1821778 0.42162,0.1769726 0.62982,0.468457 0.2082,0.2914844 0.29148,0.6922754 0.0521,0.2602539 0.0521,0.9108886 V 0 h -0.93691 v -3.3624804 q 0,-0.5725586 -0.10931,-0.8536328 -0.1093,-0.2862793 -0.39038,-0.4528418 -0.27587,-0.1717676 -0.65063,-0.1717676 -0.59859,0 -1.03581,0.3799707 -0.43202,0.3799707 -0.43202,1.4418066 V 0 Z m 9.71268,-1.7801367 0.96815,0.1197168 q -0.22903,0.84842772 -0.84843,1.31688475 -0.61941,0.46845702 -1.58235,0.46845702 -1.21278,0 -1.92587,-0.74432616 -0.70789,-0.74953121 -0.70789,-2.09764641 0,-1.394961 0.7183,-2.1653125 0.7183,-0.7703516 1.86341,-0.7703516 1.10869,0 1.81137,0.7547364 0.70269,0.7547363 0.70269,2.1236718 0,0.083281 -0.005,0.2498437 h -4.12242 q 0.0521,0.9108887 0.5153,1.394961 0.46325,0.48407222 1.15553,0.48407222 0.5153,0 0.87966,-0.27066406 0.36435,-0.27066406 0.57776,-0.86404296 z m -3.0762,-1.5146777 h 3.08661 q -0.0625,-0.6974805 -0.35394,-1.0462207 -0.44764,-0.5413281 -1.16074,-0.5413281 -0.64543,0 -1.08786,0.4320215 -0.43722,0.4320214 -0.48407,1.1555273 z M 150.09883,0 v -7.6306444 h 2.62856 q 0.89007,0 1.35853,0.1093066 0.65584,0.1509473 1.11909,0.5465332 0.60379,0.5100977 0.90048,1.3064746 0.3019,0.7911719 0.3019,1.8113672 0,0.869248 -0.203,1.5407031 -0.203,0.671455 -0.52051,1.1138867 -0.31751,0.43722653 -0.69748,0.69227535 -0.37477,0.24984375 -0.91089,0.3799707 Q 153.54459,0 152.85232,0 Z m 1.00979,-0.9004785 h 1.62919 q 0.75473,0 1.18155,-0.1405371 0.43202,-0.1405371 0.68707,-0.3955859 0.35915,-0.3591504 0.55694,-0.9629395 0.203,-0.6089941 0.203,-1.4730371 0,-1.1971679 -0.39559,-1.8373925 -0.39038,-0.6454297 -0.95253,-0.864043 -0.40599,-0.1561523 -1.30647,-0.1561523 h -1.60316 z M 157.66702,0 v -5.5277929 h 0.84322 v 0.8380176 q 0.32272,-0.5881738 0.59338,-0.7755567 0.27587,-0.1873828 0.60379,-0.1873828 0.47366,0 0.96294,0.3018946 l -0.32271,0.869248 q -0.34354,-0.202998 -0.68707,-0.202998 -0.3071,0 -0.55174,0.1873828 -0.24464,0.1821777 -0.34874,0.5100976 -0.15615,0.4996875 -0.15615,1.0930664 V 0 Z m 3.56548,-6.5531933 v -1.0774511 h 0.93692 v 1.0774511 z M 161.2325,0 v -5.5277929 h 0.93692 V 0 Z m 3.8986,0 -2.10285,-5.5277929 h 0.98896 l 1.18676,3.3104297 q 0.19259,0.536123 0.35394,1.1138867 0.12493,-0.4372266 0.34874,-1.0514258 l 1.2284,-3.3728906 h 0.96294 L 166.00555,0 Z m 7.57859,-1.7801367 0.96815,0.1197168 q -0.22903,0.84842772 -0.84843,1.31688475 -0.6194,0.46845702 -1.58234,0.46845702 -1.21279,0 -1.92588,-0.74432616 -0.70789,-0.74953121 -0.70789,-2.09764641 0,-1.394961 0.7183,-2.1653125 0.7183,-0.7703516 1.86342,-0.7703516 1.10868,0 1.81136,0.7547364 0.70269,0.7547363 0.70269,2.1236718 0,0.083281 -0.005,0.2498437 h -4.12242 q 0.0521,0.9108887 0.5153,1.394961 0.46326,0.48407222 1.15553,0.48407222 0.5153,0 0.87966,-0.27066406 0.36435,-0.27066406 0.57776,-0.86404296 z m -3.0762,-1.5146777 h 3.08661 q -0.0625,-0.6974805 -0.35394,-1.0462207 -0.44764,-0.5413281 -1.16073,-0.5413281 -0.64543,0 -1.08787,0.4320215 -0.43722,0.4320214 -0.48407,1.1555273 z m 7.81803,1.0045801 v -0.9421192 h 2.87841 v 0.9421192 z M 183.02094,0 185.9514,-7.6306444 h 1.08787 L 190.16231,0 h -1.15032 l -0.89007,-2.3110547 h -3.19071 L 184.09319,0 Z m 2.20175,-3.133457 h 2.58693 l -0.79638,-2.1132617 q -0.36436,-0.9629394 -0.54133,-1.5823437 -0.14574,0.733916 -0.4112,1.4574219 z m 5.25193,1.4834473 0.9265,-0.1457422 q 0.0781,0.5569433 0.43202,0.85363277 0.35915,0.29668945 0.99938,0.29668945 0.64543,0 0.95773,-0.2602539 0.31231,-0.26545902 0.31231,-0.61940432 0,-0.3175097 -0.27587,-0.4996875 -0.19259,-0.1249218 -0.95774,-0.3175097 -1.0306,-0.2602539 -1.43139,-0.4476367 -0.39559,-0.1925879 -0.60379,-0.5257129 -0.203,-0.3383301 -0.203,-0.7443262 0,-0.3695605 0.16656,-0.6818652 0.17177,-0.3175098 0.46325,-0.5257129 0.21862,-0.1613574 0.59338,-0.270664 0.37997,-0.1145118 0.812,-0.1145118 0.65063,0 1.13991,0.1873828 0.49448,0.1873829 0.72871,0.5100977 0.23423,0.3175098 0.32271,0.8536328 l -0.91609,0.1249219 q -0.0625,-0.4268164 -0.36436,-0.66625 -0.29669,-0.2394336 -0.84322,-0.2394336 -0.64543,0 -0.9213,0.2134082 -0.27587,0.2134082 -0.27587,0.4996875 0,0.1821777 0.11452,0.3279199 0.11451,0.1509473 0.35915,0.2498437 0.14053,0.052051 0.8276,0.2394336 0.99417,0.265459 1.38455,0.4372266 0.39559,0.1665625 0.61941,0.4892773 0.22382,0.3227149 0.22382,0.801582 0,0.4684571 -0.27587,0.88486332 -0.27067,0.41120116 -0.78597,0.6402246 -0.5153,0.22381835 -1.16594,0.22381835 -1.07745,0 -1.6448,-0.44763671 -0.56215,-0.44763671 -0.7183,-1.32729486 z M 196.17939,0 v -7.6306444 h 0.93691 v 2.737871 q 0.65584,-0.7599414 1.65521,-0.7599414 0.6142,0 1.06705,0.2446387 0.45284,0.2394336 0.64542,0.66625 0.1978,0.4268164 0.1978,1.2388086 V 0 h -0.93692 v -3.5030175 q 0,-0.7026856 -0.3071,-1.0201953 -0.30189,-0.3227149 -0.85883,-0.3227149 -0.41641,0 -0.78597,0.2186133 -0.36436,0.2134082 -0.52051,0.5829688 -0.15615,0.3695605 -0.15615,1.0201953 V 0 Z m 9.53569,-2.0247754 0.9213,0.1197168 q -0.15095,0.95252932 -0.77556,1.49385743 -0.6194,0.53612304 -1.52509,0.53612304 -1.1347,0 -1.82698,-0.73912108 -0.68707,-0.74432619 -0.68707,-2.12887689 0,-0.8952735 0.29669,-1.5667285 0.29669,-0.6714551 0.90048,-1.0045801 0.60899,-0.3383301 1.32209,-0.3383301 0.90048,0 1.47303,0.4580469 0.57256,0.4528418 0.73392,1.2908594 l -0.91089,0.1405371 q -0.13013,-0.5569434 -0.46325,-0.8380176 -0.32792,-0.2810742 -0.79638,-0.2810742 -0.70789,0 -1.15032,0.5100976 -0.44243,0.5048926 -0.44243,1.6031641 0,1.1138867 0.42682,1.6187793 0.42681,0.50489252 1.11388,0.50489252 0.55174,0 0.9213,-0.33833007 0.36956,-0.33833005 0.46846,-1.04101565 z m 5.33,1.34291018 q -0.52051,0.44243163 -1.00458,0.62460936 -0.47887,0.18217773 -1.03061,0.18217773 -0.91088,0 -1.40016,-0.44243163 -0.48928,-0.44763671 -0.48928,-1.13991214 0,-0.405996 0.18218,-0.739121 0.18738,-0.3383301 0.48407,-0.5413282 0.3019,-0.202998 0.67666,-0.3070996 0.27587,-0.072871 0.83281,-0.1405371 1.13471,-0.135332 1.67083,-0.3227148 0.005,-0.1925879 0.005,-0.2446387 0,-0.5725586 -0.26546,-0.8067871 -0.35915,-0.3175097 -1.06704,-0.3175097 -0.66105,0 -0.97856,0.2342285 -0.3123,0.2290234 -0.46325,0.8171972 l -0.91609,-0.1249218 q 0.12492,-0.5881739 0.4112,-0.9473242 0.28628,-0.3643555 0.82761,-0.5569434 0.54133,-0.197793 1.25442,-0.197793 0.70789,0 1.15032,0.1665625 0.44243,0.1665625 0.65064,0.4216114 0.2082,0.2498437 0.29148,0.6350195 0.0469,0.2394336 0.0469,0.8640429 v 1.2492188 q 0,1.3064746 0.0572,1.65521479 Q 212.03404,-0.31750976 212.21102,0 h -0.97856 q -0.14574,-0.29148437 -0.18738,-0.68186522 z M 210.967,-2.7743066 q -0.51009,0.2082031 -1.53029,0.3539453 -0.57776,0.083281 -0.8172,0.1873828 -0.23943,0.1041016 -0.36956,0.3070996 -0.13012,0.197793 -0.13012,0.4424317 0,0.3747656 0.28107,0.62460932 0.28628,0.24984375 0.83281,0.24984375 0.54133,0 0.96294,-0.23422851 0.42161,-0.23943356 0.61941,-0.65063476 0.15094,-0.3175098 0.15094,-0.936914 z m 2.40475,-3.7788867 v -1.0774511 h 0.93692 v 1.0774511 z m 0,6.5531933 v -5.5277929 h 0.93692 V 0 Z m 2.35271,0 v -5.5277929 h 0.84322 v 0.8380176 q 0.32271,-0.5881738 0.59338,-0.7755567 0.27587,-0.1873828 0.60379,-0.1873828 0.47366,0 0.96294,0.3018946 l -0.32272,0.869248 q -0.34353,-0.202998 -0.68707,-0.202998 -0.3071,0 -0.55174,0.1873828 -0.24464,0.1821777 -0.34874,0.5100976 -0.15615,0.4996875 -0.15615,1.0930664 V 0 Z m 3.56026,0 v -5.5277929 h 0.84322 v 0.7859668 q 0.60899,-0.9108887 1.75932,-0.9108887 0.49968,0 0.91609,0.1821778 0.42161,0.1769726 0.62981,0.468457 0.20821,0.2914844 0.29149,0.6922754 0.0521,0.2602539 0.0521,0.9108886 V 0 h -0.93691 v -3.3624804 q 0,-0.5725586 -0.10931,-0.8536328 -0.10931,-0.2862793 -0.39038,-0.4528418 -0.27587,-0.1717676 -0.65064,-0.1717676 -0.59858,0 -1.03581,0.3799707 -0.43202,0.3799707 -0.43202,1.4418066 V 0 Z m 8.96835,0 v -7.6306444 h 1.00978 v 6.7301659 h 3.75807 V 0 Z m 7.12054,0 v -6.7301659 h -2.51406 v -0.9004785 h 6.04831 v 0.9004785 h -2.52447 V 0 Z m 4.57007,0 v -7.6306444 h 2.62856 q 0.89007,0 1.35853,0.1093066 0.65584,0.1509473 1.11909,0.5465332 0.60379,0.5100977 0.90048,1.3064746 0.30189,0.7911719 0.30189,1.8113672 0,0.869248 -0.20299,1.5407031 -0.203,0.671455 -0.52051,1.1138867 -0.31751,0.43722653 -0.69748,0.69227535 -0.37477,0.24984375 -0.91089,0.3799707 Q 243.38944,0 242.69717,0 Z m 1.00978,-0.9004785 h 1.62919 q 0.75474,0 1.18156,-0.1405371 0.43202,-0.1405371 0.68707,-0.3955859 0.35915,-0.3591504 0.55694,-0.9629395 0.203,-0.6089941 0.203,-1.4730371 0,-1.1971679 -0.39559,-1.8373925 -0.39038,-0.6454297 -0.95253,-0.864043 -0.40599,-0.1561523 -1.30647,-0.1561523 h -1.60317 z m 5.86612,1.03060545 2.21216,-7.89089835 h 0.74953 l -2.20695,7.89089835 z M 250.60367,0 v -7.6306444 h 2.62856 q 0.89007,0 1.35853,0.1093066 0.65584,0.1509473 1.11909,0.5465332 0.60379,0.5100977 0.90048,1.3064746 0.30189,0.7911719 0.30189,1.8113672 0,0.869248 -0.203,1.5407031 -0.20299,0.671455 -0.5205,1.1138867 -0.31751,0.43722653 -0.69748,0.69227535 -0.37477,0.24984375 -0.91089,0.3799707 Q 254.04943,0 253.35715,0 Z m 1.00978,-0.9004785 h 1.62919 q 0.75474,0 1.18155,-0.1405371 0.43203,-0.1405371 0.68708,-0.3955859 0.35915,-0.3591504 0.55694,-0.9629395 0.203,-0.6089941 0.203,-1.4730371 0,-1.1971679 -0.39559,-1.8373925 -0.39038,-0.6454297 -0.95253,-0.864043 -0.40599,-0.1561523 -1.30647,-0.1561523 h -1.60317 z m 10.35291,-0.8796582 0.96815,0.1197168 q -0.22903,0.84842772 -0.84843,1.31688475 -0.61941,0.46845702 -1.58235,0.46845702 -1.21278,0 -1.92587,-0.74432616 -0.7079,-0.74953121 -0.7079,-2.09764641 0,-1.394961 0.71831,-2.1653125 0.7183,-0.7703516 1.86341,-0.7703516 1.10868,0 1.81137,0.7547364 0.70269,0.7547363 0.70269,2.1236718 0,0.083281 -0.005,0.2498437 h -4.12242 q 0.0521,0.9108887 0.5153,1.394961 0.46325,0.48407222 1.15553,0.48407222 0.5153,0 0.87966,-0.27066406 0.36435,-0.27066406 0.57776,-0.86404296 z m -3.0762,-1.5146777 h 3.08661 q -0.0625,-0.6974805 -0.35394,-1.0462207 -0.44764,-0.5413281 -1.16074,-0.5413281 -0.64543,0 -1.08786,0.4320215 -0.43722,0.4320214 -0.48407,1.1555273 z m 4.84593,1.6448047 0.92651,-0.1457422 q 0.0781,0.5569433 0.43202,0.85363277 0.35915,0.29668945 0.99937,0.29668945 0.64543,0 0.95774,-0.2602539 0.3123,-0.26545902 0.3123,-0.61940432 0,-0.3175097 -0.27587,-0.4996875 -0.19259,-0.1249218 -0.95773,-0.3175097 -1.03061,-0.2602539 -1.4314,-0.4476367 -0.39558,-0.1925879 -0.60379,-0.5257129 -0.203,-0.3383301 -0.203,-0.7443262 0,-0.3695605 0.16657,-0.6818652 0.17176,-0.3175098 0.46325,-0.5257129 0.21861,-0.1613574 0.59338,-0.270664 0.37997,-0.1145118 0.81199,-0.1145118 0.65064,0 1.13991,0.1873828 0.49448,0.1873829 0.72871,0.5100977 0.23423,0.3175098 0.32272,0.8536328 l -0.9161,0.1249219 q -0.0625,-0.4268164 -0.36435,-0.66625 -0.29669,-0.2394336 -0.84322,-0.2394336 -0.64543,0 -0.9213,0.2134082 -0.27587,0.2134082 -0.27587,0.4996875 0,0.1821777 0.11451,0.3279199 0.11451,0.1509473 0.35915,0.2498437 0.14054,0.052051 0.82761,0.2394336 0.99417,0.265459 1.38455,0.4372266 0.39558,0.1665625 0.6194,0.4892773 0.22382,0.3227149 0.22382,0.801582 0,0.4684571 -0.27587,0.88486332 -0.27066,0.41120116 -0.78596,0.6402246 -0.51531,0.22381835 -1.16594,0.22381835 -1.07745,0 -1.64481,-0.44763671 -0.56215,-0.44763671 -0.7183,-1.32729486 z M 269.44605,0 v -7.6306444 h 0.93691 v 4.3514452 l 2.21737,-2.2485937 h 1.21278 L 271.69985,-3.4769921 274.02652,0 h -1.15553 l -1.82698,-2.8263574 -0.66105,0.6350195 V 0 Z m 7.37041,-0.83801757 0.13533,0.82760741 q -0.39559,0.08328125 -0.70789,0.08328125 -0.5101,0 -0.79117,-0.16135742 -0.28108,-0.16135742 -0.39559,-0.42161132 -0.11451,-0.26545898 -0.11451,-1.10868165 V -4.799082 h -0.68707 v -0.7287109 h 0.68707 v -1.3689355 l 0.93171,-0.5621484 v 1.9310839 h 0.94212 v 0.7287109 h -0.94212 v 3.2323535 q 0,0.400791 0.0468,0.5153027 0.0521,0.11451175 0.16136,0.18217777 0.11451,0.067666 0.32272,0.067666 0.15615,0 0.4112,-0.0364355 z m 0.56733,-1.92587883 q 0,-1.5354981 0.85363,-2.2746192 0.7131,-0.6141992 1.7385,-0.6141992 1.13991,0 1.86342,0.7495313 0.7235,0.7443261 0.7235,2.0612109 0,1.067041 -0.32271,1.6812402 -0.31751,0.60899413 -0.93171,0.9473242 -0.60899,0.33833007 -1.3325,0.33833007 -1.16073,0 -1.87903,-0.74432616 -0.7131,-0.74432611 -0.7131,-2.14449211 z m 0.96294,0 q 0,1.0618359 0.46325,1.5927538 0.46325,0.52571292 1.16594,0.52571292 0.69748,0 1.16073,-0.53091792 0.46325,-0.530918 0.46325,-1.6187793 0,-1.0254004 -0.46845,-1.5511133 -0.46325,-0.5309179 -1.15553,-0.5309179 -0.70269,0 -1.16594,0.5257128 -0.46325,0.5257129 -0.46325,1.5875489 z m 5.31439,4.8823632 v -7.6462597 h 0.85363 v 0.7183008 q 0.3019,-0.4216113 0.68187,-0.6298145 0.37997,-0.2134082 0.9213,-0.2134082 0.70789,0 1.24922,0.3643555 0.54132,0.3643555 0.81719,1.0306055 0.27587,0.6610449 0.27587,1.4522167 0,0.8484278 -0.3071,1.530293 -0.30189,0.67666012 -0.88486,1.04101559 -0.57776,0.35915038 -1.21799,0.35915038 -0.46846,0 -0.84322,-0.19779296 -0.36956,-0.19779297 -0.609,-0.4996875 V 2.1184668 Z m 0.84843,-4.8511328 q 0,1.067041 0.43202,1.5771387 0.43202,0.51009762 1.04622,0.51009762 0.62461,0 1.06704,-0.52571292 0.44764,-0.5309179 0.44764,-1.6395995 0,-1.0566309 -0.43723,-1.5823438 -0.43202,-0.5257129 -1.03581,-0.5257129 -0.59858,0 -1.06183,0.5621485 -0.45805,0.5569433 -0.45805,1.6239843 z m 4.37747,2.86279295 2.21216,-7.89089835 h 0.74953 l -2.20695,7.89089835 z M 291.83311,0 l 2.93046,-7.6306444 h 1.08786 L 298.97448,0 h -1.15033 l -0.89006,-2.3110547 h -3.19072 L 292.90536,0 Z m 2.20175,-3.133457 h 2.58692 l -0.79638,-2.1132617 q -0.36435,-0.9629394 -0.54132,-1.5823437 -0.14575,0.733916 -0.41121,1.4574219 z m 5.25192,1.4834473 0.92651,-0.1457422 q 0.0781,0.5569433 0.43202,0.85363277 0.35915,0.29668945 0.99937,0.29668945 0.64543,0 0.95774,-0.2602539 0.3123,-0.26545902 0.3123,-0.61940432 0,-0.3175097 -0.27587,-0.4996875 -0.19259,-0.1249218 -0.95773,-0.3175097 -1.03061,-0.2602539 -1.4314,-0.4476367 -0.39558,-0.1925879 -0.60379,-0.5257129 -0.203,-0.3383301 -0.203,-0.7443262 0,-0.3695605 0.16657,-0.6818652 0.17176,-0.3175098 0.46325,-0.5257129 0.21861,-0.1613574 0.59338,-0.270664 0.37997,-0.1145118 0.81199,-0.1145118 0.65063,0 1.13991,0.1873828 0.49448,0.1873829 0.72871,0.5100977 0.23423,0.3175098 0.32272,0.8536328 l -0.9161,0.1249219 q -0.0625,-0.4268164 -0.36435,-0.66625 -0.29669,-0.2394336 -0.84322,-0.2394336 -0.64543,0 -0.9213,0.2134082 -0.27587,0.2134082 -0.27587,0.4996875 0,0.1821777 0.11451,0.3279199 0.11451,0.1509473 0.35915,0.2498437 0.14054,0.052051 0.82761,0.2394336 0.99417,0.265459 1.38455,0.4372266 0.39558,0.1665625 0.6194,0.4892773 0.22382,0.3227149 0.22382,0.801582 0,0.4684571 -0.27587,0.88486332 -0.27066,0.41120116 -0.78596,0.6402246 -0.51531,0.22381835 -1.16594,0.22381835 -1.07745,0 -1.64481,-0.44763671 -0.56215,-0.44763671 -0.7183,-1.32729486 z M 304.99153,0 v -7.6306444 h 0.93692 v 2.737871 q 0.65584,-0.7599414 1.65521,-0.7599414 0.6142,0 1.06704,0.2446387 0.45285,0.2394336 0.64543,0.66625 0.1978,0.4268164 0.1978,1.2388086 V 0 h -0.93692 v -3.5030175 q 0,-0.7026856 -0.3071,-1.0201953 -0.30189,-0.3227149 -0.85883,-0.3227149 -0.41641,0 -0.78597,0.2186133 -0.36436,0.2134082 -0.52051,0.5829688 -0.15615,0.3695605 -0.15615,1.0201953 V 0 Z m 9.53571,-2.0247754 0.9213,0.1197168 q -0.15095,0.95252932 -0.77556,1.49385743 -0.6194,0.53612304 -1.52508,0.53612304 -1.13471,0 -1.82699,-0.73912108 -0.68707,-0.74432619 -0.68707,-2.12887689 0,-0.8952735 0.29669,-1.5667285 0.29669,-0.6714551 0.90048,-1.0045801 0.609,-0.3383301 1.32209,-0.3383301 0.90048,0 1.47304,0.4580469 0.57256,0.4528418 0.73391,1.2908594 l -0.91088,0.1405371 q -0.13013,-0.5569434 -0.46326,-0.8380176 -0.32792,-0.2810742 -0.79637,-0.2810742 -0.70789,0 -1.15032,0.5100976 -0.44244,0.5048926 -0.44244,1.6031641 0,1.1138867 0.42682,1.6187793 0.42682,0.50489252 1.11389,0.50489252 0.55173,0 0.9213,-0.33833007 0.36956,-0.33833005 0.46845,-1.04101565 z m 5.32999,1.34291018 q -0.52051,0.44243163 -1.00458,0.62460936 -0.47887,0.18217773 -1.03061,0.18217773 -0.91089,0 -1.40016,-0.44243163 -0.48928,-0.44763671 -0.48928,-1.13991214 0,-0.405996 0.18218,-0.739121 0.18738,-0.3383301 0.48407,-0.5413282 0.30189,-0.202998 0.67666,-0.3070996 0.27587,-0.072871 0.83281,-0.1405371 1.13471,-0.135332 1.67083,-0.3227148 0.005,-0.1925879 0.005,-0.2446387 0,-0.5725586 -0.26546,-0.8067871 -0.35915,-0.3175097 -1.06704,-0.3175097 -0.66105,0 -0.97856,0.2342285 -0.3123,0.2290234 -0.46325,0.8171972 l -0.91609,-0.1249218 q 0.12492,-0.5881739 0.4112,-0.9473242 0.28628,-0.3643555 0.82761,-0.5569434 0.54132,-0.197793 1.25442,-0.197793 0.70789,0 1.15032,0.1665625 0.44243,0.1665625 0.65064,0.4216114 0.2082,0.2498437 0.29148,0.6350195 0.0469,0.2394336 0.0469,0.8640429 v 1.2492188 q 0,1.3064746 0.0573,1.65521479 Q 320.84619,-0.31750976 321.02317,0 h -0.97856 q -0.14574,-0.29148437 -0.18738,-0.68186522 z m -0.0781,-2.09244138 q -0.51009,0.2082031 -1.53029,0.3539453 -0.57776,0.083281 -0.8172,0.1873828 -0.23943,0.1041016 -0.36956,0.3070996 -0.13012,0.197793 -0.13012,0.4424317 0,0.3747656 0.28107,0.62460932 0.28628,0.24984375 0.83281,0.24984375 0.54133,0 0.96294,-0.23422851 0.42161,-0.23943356 0.61941,-0.65063476 0.15094,-0.3175098 0.15094,-0.936914 z m 2.40475,-3.7788867 v -1.0774511 h 0.93692 v 1.0774511 z M 322.1839,0 v -5.5277929 h 0.93692 V 0 Z m 2.35271,0 v -5.5277929 h 0.84322 v 0.8380176 q 0.32271,-0.5881738 0.59338,-0.7755567 0.27587,-0.1873828 0.60379,-0.1873828 0.47366,0 0.96294,0.3018946 l -0.32272,0.869248 q -0.34353,-0.202998 -0.68707,-0.202998 -0.3071,0 -0.55174,0.1873828 -0.24464,0.1821777 -0.34874,0.5100976 -0.15615,0.4996875 -0.15615,1.0930664 V 0 Z m 3.56027,0 v -5.5277929 h 0.84322 v 0.7859668 q 0.609,-0.9108887 1.75932,-0.9108887 0.49969,0 0.91609,0.1821778 0.42162,0.1769726 0.62982,0.468457 0.2082,0.2914844 0.29148,0.6922754 0.0521,0.2602539 0.0521,0.9108886 V 0 h -0.93691 v -3.3624804 q 0,-0.5725586 -0.10931,-0.8536328 -0.1093,-0.2862793 -0.39038,-0.4528418 -0.27587,-0.1717676 -0.65063,-0.1717676 -0.59859,0 -1.03581,0.3799707 -0.43202,0.3799707 -0.43202,1.4418066 V 0 Z m 8.96834,0 v -7.6306444 h 1.00978 v 6.7301659 h 3.75807 V 0 Z m 5.50177,-2.7638964 q 0,-1.5354981 0.85363,-2.2746192 0.7131,-0.6141992 1.7385,-0.6141992 1.13991,0 1.86342,0.7495313 0.7235,0.7443261 0.7235,2.0612109 0,1.067041 -0.32271,1.6812402 -0.31751,0.60899413 -0.93171,0.9473242 -0.609,0.33833007 -1.3325,0.33833007 -1.16074,0 -1.87904,-0.74432616 -0.71309,-0.74432611 -0.71309,-2.14449211 z m 0.96294,0 q 0,1.0618359 0.46325,1.5927538 0.46325,0.52571292 1.16594,0.52571292 0.69748,0 1.16073,-0.53091792 0.46325,-0.530918 0.46325,-1.6187793 0,-1.0254004 -0.46846,-1.5511133 -0.46325,-0.5309179 -1.15552,-0.5309179 -0.70269,0 -1.16594,0.5257128 -0.46325,0.5257129 -0.46325,1.5875489 z m 5.14262,3.22194327 0.91089,0.13533203 q 0.0573,0.4216113 0.31751,0.6141992 0.34874,0.2602539 0.95253,0.2602539 0.65063,0 1.00458,-0.2602539 0.35394,-0.26025389 0.47886,-0.72871092 0.0729,-0.28627929 0.0677,-1.20237303 Q 351.79039,0 350.8743,0 q -1.13991,0 -1.76452,-0.82240233 -0.62461,-0.82240237 -0.62461,-1.97272457 0,-0.7911719 0.28628,-1.4574219 0.28628,-0.671455 0.8276,-1.0358105 0.54654,-0.3643555 1.28045,-0.3643555 0.97856,0 1.61358,0.7911719 v -0.66625 h 0.86404 v 4.77826166 q 0,1.29085936 -0.26546,1.82698244 -0.26025,0.5413281 -0.83281,0.8536328 -0.56735,0.3123046 -1.40017,0.3123046 -0.98896,0 -1.59796,-0.4476367 -0.60899,-0.4424316 -0.58817,-1.33770503 z m 0.77556,-3.32083977 q 0,1.0878613 0.43202,1.5875488 0.43202,0.49968747 1.08265,0.49968747 0.64543,0 1.08266,-0.49448237 0.43723,-0.4996875 0.43723,-1.5615235 0,-1.0149902 -0.45284,-1.5302929 -0.44764,-0.5153027 -1.08266,-0.5153027 -0.62461,0 -1.06184,0.5100976 -0.43722,0.5048926 -0.43722,1.5042676 z m 4.97606,0.098896 q 0,-1.5354981 0.85363,-2.2746192 0.71309,-0.6141992 1.7385,-0.6141992 1.13991,0 1.86341,0.7495313 0.72351,0.7443261 0.72351,2.0612109 0,1.067041 -0.32272,1.6812402 -0.31751,0.60899413 -0.9317,0.9473242 -0.609,0.33833007 -1.3325,0.33833007 -1.16074,0 -1.87904,-0.74432616 -0.71309,-0.74432611 -0.71309,-2.14449211 z m 0.96294,0 q 0,1.0618359 0.46325,1.5927538 0.46325,0.52571292 1.16594,0.52571292 0.69748,0 1.16073,-0.53091792 0.46325,-0.530918 0.46325,-1.6187793 0,-1.0254004 -0.46846,-1.5511133 -0.46325,-0.5309179 -1.15552,-0.5309179 -0.70269,0 -1.16594,0.5257128 -0.46325,0.5257129 -0.46325,1.5875489 z M 363.74124,0 v -7.6306444 h 1.00979 v 6.7301659 h 3.75806 V 0 Z m 5.85572,-6.5531933 v -1.0774511 h 0.93691 v 1.0774511 z m 0,6.5531933 v -5.5277929 h 0.93691 V 0 Z m 2.19134,0.45804687 0.91089,0.13533203 q 0.0573,0.4216113 0.31751,0.6141992 0.34874,0.2602539 0.95253,0.2602539 0.65064,0 1.00458,-0.2602539 0.35395,-0.26025389 0.47887,-0.72871092 0.0729,-0.28627929 0.0677,-1.20237303 Q 374.90614,0 373.99005,0 q -1.13991,0 -1.76452,-0.82240233 -0.62461,-0.82240237 -0.62461,-1.97272457 0,-0.7911719 0.28628,-1.4574219 0.28628,-0.671455 0.82761,-1.0358105 0.54653,-0.3643555 1.28045,-0.3643555 0.97855,0 1.61357,0.7911719 v -0.66625 h 0.86404 v 4.77826166 q 0,1.29085936 -0.26546,1.82698244 -0.26025,0.5413281 -0.83281,0.8536328 -0.56735,0.3123046 -1.40016,0.3123046 -0.98897,0 -1.59796,-0.4476367 -0.609,-0.4424316 -0.58818,-1.33770503 z m 0.77556,-3.32083977 q 0,1.0878613 0.43202,1.5875488 0.43202,0.49968747 1.08266,0.49968747 0.64543,0 1.08265,-0.49448237 0.43723,-0.4996875 0.43723,-1.5615235 0,-1.0149902 -0.45284,-1.5302929 -0.44764,-0.5153027 -1.08266,-0.5153027 -0.62461,0 -1.06183,0.5100976 -0.43723,0.5048926 -0.43723,1.5042676 z M 377.88866,0 v -7.6306444 h 0.93691 v 2.737871 q 0.65584,-0.7599414 1.65522,-0.7599414 0.6142,0 1.06704,0.2446387 0.45284,0.2394336 0.64543,0.66625 0.19779,0.4268164 0.19779,1.2388086 V 0 h -0.93691 v -3.5030175 q 0,-0.7026856 -0.3071,-1.0201953 -0.3019,-0.3227149 -0.85884,-0.3227149 -0.41641,0 -0.78597,0.2186133 -0.36435,0.2134082 -0.5205,0.5829688 -0.15616,0.3695605 -0.15616,1.0201953 V 0 Z m 7.97418,-0.83801757 0.13534,0.82760741 q -0.39559,0.08328125 -0.70789,0.08328125 -0.5101,0 -0.79118,-0.16135742 -0.28107,-0.16135742 -0.39558,-0.42161132 -0.11451,-0.26545898 -0.11451,-1.10868165 V -4.799082 h -0.68707 v -0.7287109 h 0.68707 v -1.3689355 l 0.93171,-0.5621484 v 1.9310839 h 0.94211 v 0.7287109 h -0.94211 v 3.2323535 q 0,0.400791 0.0468,0.5153027 0.052,0.11451175 0.16136,0.18217777 0.11451,0.067666 0.32271,0.067666 0.15616,0 0.4112,-0.0364355 z M 387.04438,0 v -1.067041 h 1.06704 V 0 Z m 2.32147,-1.6500097 0.92651,-0.1457422 q 0.0781,0.5569433 0.43202,0.85363277 0.35915,0.29668945 0.99937,0.29668945 0.64543,0 0.95774,-0.2602539 0.3123,-0.26545902 0.3123,-0.61940432 0,-0.3175097 -0.27587,-0.4996875 -0.19258,-0.1249218 -0.95773,-0.3175097 -1.03061,-0.2602539 -1.4314,-0.4476367 -0.39558,-0.1925879 -0.60379,-0.5257129 -0.20299,-0.3383301 -0.20299,-0.7443262 0,-0.3695605 0.16656,-0.6818652 0.17177,-0.3175098 0.46325,-0.5257129 0.21861,-0.1613574 0.59338,-0.270664 0.37997,-0.1145118 0.81199,-0.1145118 0.65064,0 1.13991,0.1873828 0.49449,0.1873829 0.72871,0.5100977 0.23423,0.3175098 0.32272,0.8536328 l -0.91609,0.1249219 q -0.0625,-0.4268164 -0.36436,-0.66625 -0.29669,-0.2394336 -0.84322,-0.2394336 -0.64543,0 -0.9213,0.2134082 -0.27587,0.2134082 -0.27587,0.4996875 0,0.1821777 0.11451,0.3279199 0.11451,0.1509473 0.35915,0.2498437 0.14054,0.052051 0.82761,0.2394336 0.99417,0.265459 1.38455,0.4372266 0.39559,0.1665625 0.6194,0.4892773 0.22382,0.3227149 0.22382,0.801582 0,0.4684571 -0.27587,0.88486332 -0.27066,0.41120116 -0.78596,0.6402246 -0.51531,0.22381835 -1.16594,0.22381835 -1.07745,0 -1.64481,-0.44763671 -0.56214,-0.44763671 -0.7183,-1.32729486 z M 396.6061,0 394.50325,-5.5277929 h 0.98897 l 1.18675,3.3104297 q 0.19259,0.536123 0.35395,1.1138867 0.12492,-0.4372266 0.34874,-1.0514258 l 1.2284,-3.3728906 H 399.573 L 397.48056,0 Z m 3.62275,0.45804687 0.91089,0.13533203 q 0.0573,0.4216113 0.31751,0.6141992 0.34874,0.2602539 0.95253,0.2602539 0.65064,0 1.00458,-0.2602539 0.35395,-0.26025389 0.47887,-0.72871092 0.0729,-0.28627929 0.0677,-1.20237303 Q 403.3467,0 402.4306,0 q -1.13991,0 -1.76452,-0.82240233 -0.62461,-0.82240237 -0.62461,-1.97272457 0,-0.7911719 0.28628,-1.4574219 0.28628,-0.671455 0.82761,-1.0358105 0.54653,-0.3643555 1.28045,-0.3643555 0.97855,0 1.61357,0.7911719 v -0.66625 h 0.86405 v 4.77826166 q 0,1.29085936 -0.26546,1.82698244 -0.26026,0.5413281 -0.83282,0.8536328 -0.56735,0.3123046 -1.40016,0.3123046 -0.98897,0 -1.59796,-0.4476367 -0.609,-0.4424316 -0.58818,-1.33770503 z m 0.77556,-3.32083977 q 0,1.0878613 0.43202,1.5875488 0.43202,0.49968747 1.08266,0.49968747 0.64543,0 1.08266,-0.49448237 0.43722,-0.4996875 0.43722,-1.5615235 0,-1.0149902 -0.45284,-1.5302929 -0.44764,-0.5153027 -1.08266,-0.5153027 -0.62461,0 -1.06183,0.5100976 -0.43723,0.5048926 -0.43723,1.5042676 z"
           id="text5"
           transform="translate(31.999999,1101)"
           aria-label="file:///C:/Users/CalMcGuire/OneDrive - Ashcairn LTD/Desktop/Ashcairn Logo Light.svg" />
      </g>
      <g
         id="g6"
         clip-path="url(#clipPath5)">
        <path
           style="font-size:10.66px;font-family:Arial"
           d="M 3.9714746,0 H 3.0345605 V -5.9702245 Q 2.6962304,-5.6475097 2.1444922,-5.3247948 1.597959,-5.00208 1.1607324,-4.8407226 V -5.7464062 Q 1.9466992,-6.1159667 2.534873,-6.6416796 3.1230468,-7.1673925 3.3676855,-7.6618749 h 0.6037891 z"
           id="text6"
           transform="translate(746.74997,1101)"
           aria-label="1" />
        <path
           style="font-size:10.66px;font-family:Arial"
           d="M 0,0.13012695 2.2121582,-7.7607714 H 2.9616894 L 0.75473632,0.13012695 Z"
           id="text7"
           transform="translate(752.68747,1101)"
           aria-label="/" />
        <path
           style="font-size:10.66px;font-family:Arial"
           d="M 3.9714746,0 H 3.0345605 V -5.9702245 Q 2.6962304,-5.6475097 2.1444922,-5.3247948 1.597959,-5.00208 1.1607324,-4.8407226 V -5.7464062 Q 1.9466992,-6.1159667 2.534873,-6.6416796 3.1230468,-7.1673925 3.3676855,-7.6618749 h 0.6037891 z"
           id="text8"
           transform="translate(755.65622,1101)"
           aria-label="1" />
      </g>
    </g>
  </g>
</svg>
